<?xml version="1.0" encoding="UTF-8"?>
<svg version="1.1" xmlns="http://www.w3.org/2000/svg" width="512" height="512">
<path d="M0 0 C12.34433086 9.72979785 21.02443842 22.07455464 23 38 C23.94192418 54.99086308 21.11385155 69.04887483 9.6875 82.25 C2.74210584 89.55423953 -3.85265435 94.3383369 -13.30078125 97.95703125 C-15.6217884 98.85386035 -17.79928217 99.84475382 -20 101 C-14.57364437 106.51612989 -9.17763996 111.99435189 -3.26953125 117 C-1.42294296 118.62728606 0.34801879 120.28695176 2.11328125 122 C14.49973291 133.96460571 27.06437622 141.3092536 42.83105469 148.06787109 C54.89013274 153.25039698 64.7031496 158.54098493 70.2578125 171.125 C70.62519531 172.053125 70.62519531 172.053125 71 173 C71.4125 174.03125 71.825 175.0625 72.25 176.125 C74.53957833 187.95448805 73.03251603 197.97561725 67.0625 208.375 C60.88142387 216.24182417 53.09168381 223.23750874 43 225 C30.34936361 226.46281449 20.3422202 223.71302371 8.63964844 219.03955078 C5.91365477 217.96599538 3.16987259 216.9591737 0.4140625 215.96484375 C-8.51862121 212.71460635 -17.19014819 209.55741476 -25 204 C-25.06058594 205.13695312 -25.12117187 206.27390625 -25.18359375 207.4453125 C-25.2446228 208.55604126 -25.2446228 208.55604126 -25.30688477 209.68920898 C-25.39468001 211.32646716 -25.47711468 212.96402075 -25.55444336 214.60180664 C-25.74567878 218.42465118 -26.01932699 222.1330385 -26.5703125 225.92578125 C-27.56836645 232.4964332 -27.56836645 232.4964332 -25.52514648 238.62524414 C-24.52076538 239.88002563 -24.52076538 239.88002563 -23.49609375 241.16015625 C-20.52199896 245.0119709 -17.68162352 248.8753308 -15 252.9375 C-14.34 253.93523437 -13.68 254.93296875 -13 255.9609375 C-11.66666667 257.98697917 -10.33333333 260.01302083 -9 262.0390625 C-5.72781853 266.98568058 -2.40276409 271.85648238 1.125 276.625 C4.75721349 281.57672854 7.97225482 286.66000876 11 292 C11.51127441 292.90153809 12.02254883 293.80307617 12.54931641 294.73193359 C26.54017936 319.89260157 45.51662169 364.64454081 37.375 393.5625 C33.83514764 404.11995439 27.94085476 411.9725228 18.0625 417.25 C7.96109553 421.88544373 -3.04808078 422.66640339 -13.625 419.0390625 C-23.75135633 414.60878161 -31.25692474 407.65274313 -35.69287109 397.57885742 C-38.82705516 388.99760897 -40.53704096 379.94062108 -42.54956055 371.04443359 C-45.79358874 356.80380925 -49.5342156 343.67808785 -57 331 C-59.57879556 333.57879556 -60.26212947 336.09162141 -61.5625 339.5 C-64.50547805 346.67944242 -68.51544356 351.49914473 -74 357 C-74.95442949 358.03035384 -75.90335642 359.06582337 -76.84765625 360.10546875 C-85.50491074 369.60802617 -94.59459076 378.6672284 -103.73657227 387.69970703 C-104.24426147 388.20313126 -104.75195068 388.70655548 -105.27502441 389.22523499 C-106.66516116 390.6034239 -108.05819122 391.97869267 -109.45141602 393.35375977 C-111.29473723 395.26771308 -112.98626737 397.1547773 -114.66235352 399.20385742 C-119.72151825 405.25530533 -127.25268632 409.56531228 -135 411 C-135.66128906 411.13148438 -136.32257813 411.26296875 -137.00390625 411.3984375 C-148.09614376 413.18430758 -158.72231004 410.14581439 -168 404 C-176.28509361 396.67608555 -181.26558629 387.45219992 -182.22265625 376.4375 C-182.62104658 364.24329173 -178.94629494 353.4467257 -170.6328125 344.43359375 C-168.91392825 342.72254636 -167.17797823 341.0284799 -165.42578125 339.3515625 C-163.39886828 337.38666458 -161.56319949 335.40747788 -159.75 333.25 C-157.01087269 330.02521182 -154.06779375 327.09918139 -151.02856445 324.16333008 C-133.71720659 307.34782864 -125.45613755 287.83991927 -116.89135742 265.61181641 C-115.68720561 262.49923903 -114.46002139 259.39635992 -113.23242188 256.29296875 C-108.99623683 245.42891952 -105.79841822 235.68600522 -105 224 C-104.84121014 222.25869459 -104.67749804 220.51783403 -104.51000977 218.77734375 C-103.8563208 211.92220056 -103.2662485 205.06189538 -102.67456055 198.20117188 C-102.42009583 195.2640573 -102.16136083 192.32734103 -101.90234375 189.390625 C-101.82628403 188.49071838 -101.7502243 187.59081177 -101.67185974 186.66363525 C-101.59830765 185.83136414 -101.52475555 184.99909302 -101.44897461 184.14160156 C-101.38616806 183.4118512 -101.32336151 182.68210083 -101.25865173 181.93023682 C-101 180 -101 180 -100 177 C-112.51866146 183.9263086 -122.23752249 192.13895964 -132.25 202.34765625 C-133.21396353 203.32542243 -134.17807679 204.303041 -135.14233398 205.28051758 C-137.04967564 207.2140996 -138.93833994 209.16134801 -140.82055664 211.11987305 C-151.51317359 222.03367013 -161.9544094 228.93653044 -177.4375 229.4375 C-187.79909858 229.19726132 -196.43050078 226.18460943 -204 219 C-212.51912641 210.06190016 -215.6786956 200.51695524 -215.53662109 188.34545898 C-214.7340229 170.61910929 -201.05292676 159.81654755 -189.3125 148.0625 C-188.78431671 147.53364197 -188.25613342 147.00478394 -187.71194458 146.4598999 C-179.90678221 138.67050911 -172.05245522 131.32782189 -163 125 C-162.4524707 124.60280762 -161.90494141 124.20561523 -161.34082031 123.79638672 C-144.4974905 111.5900285 -125.72920885 102.44814344 -106 96 C-104.62140867 95.54723279 -103.24282886 95.09443051 -101.86425781 94.64160156 C-91.9239123 91.38259798 -81.96690832 88.17674167 -72 85 C-72.46760742 84.48920898 -72.93521484 83.97841797 -73.41699219 83.45214844 C-84.13881391 71.51611522 -88.72496967 57.88621304 -88.34765625 41.875 C-86.92115287 25.97509713 -80.38126303 13.93998627 -69 3 C-49.90352454 -12.928958 -20.26444532 -15.44776901 0 0 Z M-56 15 C-56.86625 15.5775 -57.7325 16.155 -58.625 16.75 C-65.84870242 23.59350755 -70.37424017 32.83966621 -71.23828125 42.7265625 C-71.54432749 54.67847355 -67.61900918 65.02278561 -59.33984375 73.75 C-50.78966425 81.54059635 -40.80357208 84.52277196 -29.34375 84.3125 C-19.78497684 83.41915671 -10.64683215 78.87687334 -4.02734375 71.9296875 C3.89255355 62.27783814 6.91724884 52.40787527 6 40 C4.23021453 30.52398333 -0.7711538 21.09286683 -8.4453125 15.0859375 C-24.29849686 4.96393349 -40.30730893 3.82116164 -56 15 Z M-72.65234375 102.96484375 C-74.12266808 103.43223717 -74.12266808 103.43223717 -75.62269592 103.90907288 C-77.68819588 104.56979299 -79.75121016 105.2383301 -81.81176758 105.91430664 C-84.89233292 106.92271478 -87.98107194 107.90168312 -91.07226562 108.87695312 C-127.89866444 120.66661332 -156.37309443 139.37185057 -183.6875 166.375 C-184.17130127 166.84917358 -184.65510254 167.32334717 -185.15356445 167.81188965 C-195.46841748 177.93545744 -195.46841748 177.93545744 -199.09375 191.515625 C-198.84847596 198.01538713 -195.95123608 202.83877417 -191.59375 207.52734375 C-186.86253837 211.89907607 -181.27949943 213.12517275 -175 213 C-163.55099091 211.47346545 -155.65854321 200.75197421 -148.06103516 192.94384766 C-133.18771253 177.69003854 -114.64111159 160.2260763 -92.57421875 156.6015625 C-89.79224017 156.63612124 -87.52923781 156.70977282 -85.0625 158.0625 C-82.27952659 163.13733387 -82.96744859 169.15411348 -83.54492188 174.72021484 C-83.61465714 175.45780533 -83.6843924 176.19539581 -83.75624084 176.95533752 C-83.90760921 178.54561013 -84.06271405 180.13553072 -84.22120667 181.7251091 C-84.47242214 184.2478131 -84.71307144 186.77133357 -84.9510498 189.2953186 C-85.54410312 195.56327914 -86.15410191 201.82956446 -86.76544189 208.09576416 C-87.28215474 213.39663428 -87.79144311 218.69811291 -88.29066467 224.00065994 C-88.52658809 226.47455271 -88.77328895 228.94721561 -89.02038574 231.42001343 C-90.76735515 244.98057636 -90.76735515 244.98057636 -86.625 257.5625 C-86.08488281 258.39652344 -85.54476562 259.23054687 -84.98828125 260.08984375 C-84.33214844 261.05019531 -83.67601562 262.01054687 -83 263 C-82.60989746 263.57637207 -82.21979492 264.15274414 -81.81787109 264.74658203 C-79.05653263 268.82354863 -76.25793315 272.87377636 -73.44677734 276.91650391 C-71.16157033 280.20741795 -68.89328371 283.50990868 -66.625 286.8125 C-66.17970947 287.46065674 -65.73441895 288.10881348 -65.27563477 288.77661133 C-64.34608989 290.12965032 -63.41664899 291.48276074 -62.48730469 292.8359375 C-61.44707351 294.34949777 -60.40598749 295.86247071 -59.36425781 297.375 C-40.99740944 324.04438121 -30.35846336 347.22400769 -23.44726562 378.8203125 C-23.17205078 380.05265625 -22.89683594 381.285 -22.61328125 382.5546875 C-22.37391846 383.65280762 -22.13455566 384.75092773 -21.88793945 385.88232422 C-19.53162959 394.15564756 -14.86182511 399.05731638 -7.625 403.4375 C-0.94599034 404.86871636 5.18179202 404.79623877 11.18359375 401.31640625 C16.59036643 397.39794949 20.09630379 392.51292727 21.71484375 386 C22.36247766 379.18653637 20.54230729 372.5904967 19 366 C18.75926758 364.94296875 18.51853516 363.8859375 18.27050781 362.796875 C10.84409841 330.4970181 -0.94036866 303.74000408 -20.14501953 276.63134766 C-23.65433363 271.65327614 -27.06973131 266.60995712 -30.47900391 261.56298828 C-32.83410482 258.092041 -35.21018269 254.68062216 -37.80859375 251.38671875 C-38.23479004 250.82927979 -38.66098633 250.27184082 -39.10009766 249.69750977 C-40.20668992 248.26223776 -41.34590054 246.85226612 -42.48828125 245.4453125 C-46.93669184 235.30707441 -43.36442425 220.47686203 -42.33323669 209.71902657 C-42.02500249 206.50118479 -41.72451551 203.28269771 -41.42590332 200.06394958 C-40.68312992 192.07389166 -39.92786883 184.085025 -39.17205811 176.09619141 C-38.53205747 169.32736301 -37.89734524 162.55807916 -37.26963806 155.78809929 C-36.97566908 152.64049073 -36.67409333 149.4936731 -36.37219238 146.34681702 C-33.19298179 126.27458738 -33.19298179 126.27458738 -39 108 C-43.14821433 103.61586827 -47.36679669 100.43186266 -53.52003479 99.70045471 C-60.38256211 99.6723497 -66.15570692 100.82058958 -72.65234375 102.96484375 Z M-18 128 C-19.35661366 138.32785277 -20.5088723 148.65594423 -21.43261719 159.03149414 C-21.62835808 161.2251335 -21.82956335 163.4182282 -22.03125 165.61132812 C-22.15917209 167.02601295 -22.28678815 168.4407255 -22.4140625 169.85546875 C-22.58349365 171.73721802 -22.58349365 171.73721802 -22.75634766 173.65698242 C-23.51663915 179.58154626 -23.51663915 179.58154626 -20.875 184.53515625 C-19.451875 185.78619141 -19.451875 185.78619141 -18 187.0625 C-16.6078125 188.31740234 -16.6078125 188.31740234 -15.1875 189.59765625 C-7.70328671 195.2383317 1.18890988 198.12077492 9.89086914 201.3737793 C12.06398266 202.18805556 14.2321891 203.01454385 16.40039062 203.84179688 C17.79919825 204.36793496 19.1982779 204.89335052 20.59765625 205.41796875 C21.23639175 205.6627446 21.87512726 205.90752045 22.53321838 206.15971375 C30.79001625 209.21428024 36.9851043 209.51779184 45 206 C50.9500129 202.45940297 54.09789682 197.59545835 56 191 C57.17122906 184.69709723 55.31253269 179.36233339 52 174 C46.946805 168.43479745 41.49757389 165.57151762 34.5 163.125 C17.89918809 156.87606024 4.08612511 148.50451831 -8.296875 135.640625 C-11.28029575 132.76668758 -14.63977772 130.40872567 -18 128 Z M-100 269 C-100.52787109 270.38952881 -100.52787109 270.38952881 -101.06640625 271.80712891 C-102.40422462 275.31930439 -103.75739883 278.82540899 -105.11474609 282.33007812 C-105.6946459 283.83340361 -106.27064279 285.33824181 -106.84228516 286.84472656 C-116.04428518 311.07073015 -130.68504621 329.10140521 -149.16015625 347.078125 C-149.83481934 347.7371582 -150.50948242 348.39619141 -151.20458984 349.07519531 C-152.48574966 350.31881313 -153.77589786 351.55326736 -155.07666016 352.77636719 C-161.04750691 358.56200788 -164.6061972 364.88056355 -165.25 373.25 C-164.80099523 379.9850715 -163.18083086 384.27705571 -158.125 388.875 C-153.65574311 392.64319698 -149.54525142 394.29022791 -143.6875 394.375 C-142.80449219 394.40335937 -141.92148438 394.43171875 -141.01171875 394.4609375 C-130.70588173 392.88364986 -124.34562113 384.84175601 -117.4375 377.75 C-116.32965476 376.63064005 -115.22093644 375.51214351 -114.11132812 374.39453125 C-109.12549444 369.35183025 -104.27708857 364.2545659 -99.66577148 358.86425781 C-95.72344196 354.45217687 -91.34239706 350.42638459 -87.05273438 346.35546875 C-82.49055754 341.90317485 -79.40433618 337.89716438 -77 332 C-76.67990967 331.26281738 -76.35981934 330.52563477 -76.0300293 329.76611328 C-75.04497882 327.46173352 -74.11113841 325.14209963 -73.1875 322.8125 C-72.86330078 322.03197266 -72.53910156 321.25144531 -72.20507812 320.44726562 C-71.75358398 319.30741211 -71.75358398 319.30741211 -71.29296875 318.14453125 C-70.88340942 317.12903198 -70.88340942 317.12903198 -70.46557617 316.09301758 C-69.65616811 312.45428902 -70.51176275 309.86569266 -72.31591797 306.66674805 C-72.86908691 305.87308838 -73.42225586 305.07942871 -73.9921875 304.26171875 C-74.6099707 303.36614258 -75.22775391 302.47056641 -75.86425781 301.54785156 C-76.52780273 300.60393555 -77.19134766 299.66001953 -77.875 298.6875 C-79.24219713 296.7174546 -80.60938454 294.74740246 -81.9765625 292.77734375 C-82.6562207 291.80394043 -83.33587891 290.83053711 -84.03613281 289.82763672 C-85.82363858 287.25393063 -87.5864553 284.66604916 -89.3359375 282.06640625 C-89.8323877 281.33139893 -90.32883789 280.5963916 -90.84033203 279.83911133 C-91.75878971 278.47796786 -92.67399742 277.11462397 -93.58544922 275.7487793 C-95.56434914 272.83952426 -97.0339512 270.97736587 -100 269 Z " fill="#000000" transform="translate(231,62)"/>
<path d="M0 0 C2.91695969 2.04739171 3.66207299 4.77012596 4.77587891 8.01953125 C5.15022568 9.06439697 5.15022568 9.06439697 5.53213501 10.13037109 C9.15355119 20.43766036 12.22636396 30.93217566 15.36181641 41.39453125 C16.00846333 43.53790785 16.65559557 45.6811381 17.30322266 47.82421875 C18.87000719 53.01265269 20.43083872 58.20284679 21.98681641 63.39453125 C22.66475754 63.39817688 23.34269867 63.40182251 24.04118347 63.40557861 C31.09803534 63.44739262 38.15423616 63.5167312 45.21069336 63.60205078 C47.84409066 63.63027444 50.4775729 63.65148195 53.11108398 63.66552734 C56.89692718 63.68693645 60.68174761 63.7335799 64.46728516 63.78515625 C65.64453659 63.78638489 66.82178802 63.78761353 68.03471375 63.78887939 C76.15386366 63.9343225 76.15386366 63.9343225 80.23022461 66.18652344 C82.33485077 68.83200488 82.5842714 70.94651729 82.65087891 74.296875 C81.60026305 77.61558507 79.61900684 79.17861311 76.98681641 81.39453125 C73.95153809 82.02944946 73.95153809 82.02944946 70.53173828 82.04150391 C69.24690552 82.05726471 67.96207275 82.07302551 66.63830566 82.08926392 C65.24405049 82.08031384 63.84980317 82.07005877 62.45556641 82.05859375 C61.01737051 82.06196456 59.57917739 82.06681939 58.14099121 82.0730896 C55.13147779 82.08044868 52.122708 82.06978815 49.11328125 82.04638672 C45.2626705 82.01789759 41.41380217 82.03430702 37.56325531 82.06424904 C34.59481769 82.08234927 31.62679069 82.07655193 28.65834045 82.06361008 C27.23901664 82.0602835 25.81965509 82.06433689 24.40037537 82.07600784 C22.41422271 82.08875747 20.42793869 82.06586634 18.44189453 82.04150391 C17.3133606 82.03752594 16.18482666 82.03354797 15.02209473 82.02944946 C11.00936444 81.19006827 9.54054667 79.53742958 6.98681641 76.39453125 C5.96794128 74.42655945 5.96794128 74.42655945 5.40942383 72.5222168 C5.0796479 71.44166267 5.0796479 71.44166267 4.74320984 70.33927917 C4.52840469 69.57762955 4.31359955 68.81597992 4.09228516 68.03125 C3.8552034 67.23926712 3.61812164 66.44728424 3.37385559 65.63130188 C2.62554851 63.11906278 1.8996898 60.60097641 1.17431641 58.08203125 C0.66862726 56.37000713 0.16148071 54.65841279 -0.34716797 52.94726562 C-1.58609401 48.76780557 -2.80494046 44.5829595 -4.01318359 40.39453125 C-5.9951443 45.54477088 -7.77924505 50.69339242 -9.30981445 55.99707031 C-9.51840591 56.7104808 -9.72699738 57.4238913 -9.94190979 58.15892029 C-10.3901065 59.69331148 -10.83690677 61.22811116 -11.28242302 62.76328278 C-11.9908681 65.20440219 -12.70306132 67.64440164 -13.41615295 70.08416748 C-14.93106892 75.26996538 -16.44098717 80.45721193 -17.95068359 85.64453125 C-19.6987533 91.64838225 -21.44892829 97.65161152 -23.20248604 103.653862 C-23.89785464 106.03708688 -24.59037844 108.42112519 -25.28269958 110.80523682 C-27.17843048 117.31675339 -29.09884019 123.82186954 -31.14428711 130.28808594 C-31.43473404 131.21095398 -31.72518097 132.13382202 -32.02442932 133.08465576 C-33.05574105 135.49395173 -33.98295124 136.76196368 -36.01318359 138.39453125 C-38.97226864 139.40684982 -40.60239025 139.50211998 -43.63818359 138.70703125 C-47.89245379 136.35598719 -49.41077958 132.83045544 -50.98681641 128.37670898 C-51.52317719 126.8775016 -51.52317719 126.8775016 -52.07037354 125.3480072 C-52.4485321 124.26894608 -52.82669067 123.18988495 -53.21630859 122.078125 C-53.81762604 120.38962181 -53.81762604 120.38962181 -54.43109131 118.66700745 C-55.71501135 115.05763715 -56.9893845 111.44498431 -58.26318359 107.83203125 C-59.52105367 104.2837148 -60.78089343 100.73610297 -62.0411377 97.18862915 C-62.86259994 94.87524352 -63.68284229 92.56142432 -64.50183105 90.24716187 C-67.26648913 82.4462141 -70.09382801 74.67100601 -73.02056885 66.92930603 C-75.01318359 61.60713413 -75.01318359 61.60713413 -75.01318359 59.39453125 C-76.23424805 59.40500488 -77.4553125 59.41547852 -78.71337891 59.42626953 C-83.24573838 59.46248276 -87.77808507 59.4854366 -92.31054688 59.50439453 C-94.27183178 59.51444908 -96.2331017 59.52809458 -98.19433594 59.54541016 C-101.01419777 59.56968238 -103.83386132 59.58101984 -106.65380859 59.58984375 C-107.5299884 59.60016632 -108.40616821 59.61048889 -109.30889893 59.62112427 C-110.12944763 59.62127533 -110.94999634 59.62142639 -111.79541016 59.62158203 C-112.51488831 59.62602325 -113.23436646 59.63046448 -113.97564697 59.63504028 C-116.36876474 59.35255876 -117.95451339 58.62998904 -120.01318359 57.39453125 C-122.10997762 54.69865322 -122.0082918 53.30158725 -121.82568359 49.83203125 C-121.03806077 46.49978086 -120.71636746 45.34082364 -118.01318359 43.39453125 C-115.58433946 42.18010918 -113.99030398 42.24829145 -111.27563477 42.2175293 C-110.29088669 42.20469406 -109.30613861 42.19185883 -108.29154968 42.17863464 C-107.22386856 42.17124771 -106.15618744 42.16386078 -105.05615234 42.15625 C-103.96103836 42.14817825 -102.86592438 42.14010651 -101.73762512 42.13179016 C-99.41665229 42.11794221 -97.09565904 42.10722325 -94.7746582 42.09936523 C-91.22551876 42.0821517 -87.67731043 42.03827065 -84.12841797 41.99414062 C-81.87516962 41.984014 -79.62191334 41.97549781 -77.36865234 41.96875 C-76.30704391 41.95124191 -75.24543549 41.93373383 -74.1516571 41.91569519 C-73.15745255 41.91862076 -72.16324799 41.92154633 -71.13891602 41.92456055 C-70.26780685 41.91869431 -69.39669769 41.91282806 -68.49919128 41.90678406 C-65.08501312 42.57663549 -63.4698709 43.96008597 -61.01318359 46.39453125 C-59.69059753 48.88763428 -59.69059753 48.88763428 -58.70141602 51.71386719 C-58.32139938 52.77466492 -57.94138275 53.83546265 -57.54985046 54.92840576 C-56.96515739 56.6364035 -56.96515739 56.6364035 -56.36865234 58.37890625 C-55.74667717 60.13500214 -55.74667717 60.13500214 -55.11213684 61.92657471 C-54.01737735 65.02653836 -52.93648983 68.13087975 -51.86218262 71.23797607 C-50.76067123 74.41272337 -49.64103945 77.58106211 -48.52294922 80.75 C-46.33633122 86.95909003 -44.16788901 93.17429972 -42.01318359 99.39453125 C-39.86932459 96.17874274 -38.91003749 93.13294544 -37.86181641 89.47070312 C-37.65658356 88.76926682 -37.45135071 88.06783051 -37.23989868 87.34513855 C-36.5605883 85.01921648 -35.88853366 82.69125997 -35.21630859 80.36328125 C-34.7408064 78.7314184 -34.26478464 77.09970686 -33.78826904 75.46813965 C-32.53017369 71.15632428 -31.27791052 66.84283839 -30.02722168 62.52886963 C-28.04148873 55.68223119 -26.04789404 48.8378834 -24.05257416 41.99403381 C-23.36486307 39.63169272 -22.68016933 37.26849438 -21.99591064 34.90515137 C-20.91455219 31.177411 -19.81633689 27.4549744 -18.70729065 23.73538208 C-18.22066646 22.09425967 -17.73951282 20.45150987 -17.26243591 18.80758667 C-16.49878472 16.18318294 -15.71635881 13.56499615 -14.93017578 10.94726562 C-14.58210814 9.73081234 -14.58210814 9.73081234 -14.22700882 8.48978424 C-13.20187871 5.13493013 -12.51581556 2.90225366 -10.01837158 0.3795166 C-6.62969656 -1.28506312 -3.56458533 -1.07205574 0 0 Z " fill="#000000" transform="translate(414.01318359375,126.60546875)"/>
<path d="M0 0 C3.02130228 1.92662075 3.02130228 1.92662075 6.4453125 2.5234375 C8.87821854 1.21044772 8.87821854 1.21044772 11.2578125 -0.7265625 C18.98782998 -6.43313423 26.65681578 -9.54668754 36.4453125 -8.4765625 C47.35542823 -6.41173241 54.57041703 -1.88002688 61.2890625 6.9453125 C68.30853308 17.74979172 70.04281963 29.5945137 67.7890625 42.19140625 C63.61986191 59.53312421 54.53016451 73.32066501 42.5234375 86.234375 C41.09193992 87.81117497 39.71897239 89.4424518 38.3984375 91.11328125 C35.46815103 94.72925475 31.99392844 97.53090516 28.4453125 100.5234375 C27.45144531 101.38195312 26.45757812 102.24046875 25.43359375 103.125 C24.37549529 104.02922573 23.3169029 104.93287381 22.2578125 105.8359375 C21.27425781 106.67769531 20.29070312 107.51945312 19.27734375 108.38671875 C13.01249509 113.11343905 7.08043729 113.27492616 -0.5546875 112.5234375 C-17.54574723 108.3862092 -36.54279581 84.50662216 -45.44921875 70.36962891 C-54.43174626 55.36833187 -61.67761141 38.62927531 -57.27734375 20.82421875 C-53.66648477 9.3280245 -47.45629494 0.32093541 -36.69921875 -5.4765625 C-23.38198211 -11.59132016 -11.42463224 -7.89398787 0 0 Z M-35.3046875 15.0859375 C-39.9309115 20.78536212 -41.93982092 26.93183159 -41.5546875 34.2734375 C-37.94838445 58.49260954 -19.16567982 77.95056901 -0.8125 92.703125 C1.4453125 94.5234375 1.4453125 94.5234375 2.4453125 95.5234375 C4.70502179 96.05452089 4.70502179 96.05452089 7.4453125 95.5234375 C9.84451 93.82622742 11.91127597 92.17367086 14.0703125 90.2109375 C14.68495361 89.66477783 15.29959473 89.11861816 15.93286133 88.5559082 C17.7858501 86.89458308 19.61795417 85.21287246 21.4453125 83.5234375 C22.20932373 82.82734375 22.20932373 82.82734375 22.98876953 82.1171875 C36.88094045 69.35936194 50.91304643 51.71830101 51.7578125 32.0859375 C51.53962315 24.62899559 49.23886691 18.42881361 44.1171875 12.96484375 C40.66297779 9.98679846 37.18506482 8.69118221 32.609375 8.25 C28.74998826 8.58352725 26.60322515 9.80825616 23.3203125 11.8359375 C22.30710937 12.45082031 21.29390625 13.06570312 20.25 13.69921875 C17.5046865 15.43397471 17.5046865 15.43397471 15.265625 17.19140625 C10.67777716 20.54860821 4.85527297 20.28111521 -0.5546875 19.5234375 C-5.38402397 17.40542851 -9.45884022 14.33436449 -13.6796875 11.2109375 C-21.75716898 6.46980707 -29.01810768 8.57530767 -35.3046875 15.0859375 Z " fill="#000000" transform="translate(335.5546875,37.4765625)"/>
</svg>
