<?xml version="1.0" encoding="UTF-8"?>
<svg version="1.1" xmlns="http://www.w3.org/2000/svg" width="512" height="512">
<path d="M0 0 C1.51633315 -0.00390095 3.03266523 -0.00823841 4.54899597 -0.01298523 C7.7098649 -0.02039457 10.87062203 -0.02019526 14.03149414 -0.01489258 C18.03855759 -0.00910921 22.04515711 -0.02602736 26.05214405 -0.04923725 C29.17956621 -0.06412617 32.30688056 -0.06482589 35.43433189 -0.06172752 C36.90959274 -0.0622333 38.38486086 -0.06732739 39.86008644 -0.07753944 C66.46906614 -0.23916663 88.64588155 8.61609938 108.04296875 26.86328125 C124.34671748 43.62845684 132.69603952 65.28111331 132.48046875 88.61328125 C132.47144531 89.79390137 132.46242188 90.97452148 132.453125 92.19091797 C131.96842547 116.72546567 121.47680887 137.2666478 104.18505859 154.32592773 C100.78807411 157.45770429 97.11687001 160.12685995 93.35546875 162.80078125 C91.67329632 164.01789811 89.99235175 165.23671341 88.3125 166.45703125 C87.44705566 167.08480469 86.58161133 167.71257812 85.68994141 168.359375 C81.258865 171.60932147 76.90307966 174.95657537 72.54296875 178.30078125 C65.13079302 183.97392034 57.66367009 189.56226693 50.13671875 195.08203125 C44.41016869 199.28404219 38.71927892 203.53118493 33.04296875 207.80078125 C26.59224208 212.65287673 20.11462991 217.4648964 13.60546875 222.23828125 C5.95982422 227.84847965 -1.59041207 233.57599555 -9.12084961 239.33959961 C-15.61851195 244.30403165 -22.18127708 249.17149007 -28.77978516 254.00073242 C-34.85774203 258.46064718 -40.84983523 263.02602239 -46.83203125 267.61328125 C-65.80331436 282.0999118 -85.14355703 296.32356315 -110.05712891 296.46191406 C-110.74098663 296.46687897 -111.42484436 296.47184387 -112.12942505 296.47695923 C-114.37665848 296.49148088 -116.62382123 296.49836751 -118.87109375 296.50390625 C-119.644958 296.50673363 -120.41882225 296.509561 -121.21613693 296.51247406 C-125.31483039 296.52742933 -129.41348901 296.53668079 -133.51220703 296.54101562 C-137.71475596 296.54648216 -141.91697795 296.57048202 -146.11942482 296.59898758 C-149.3779692 296.61775228 -152.63643716 296.62282694 -155.89503098 296.6243515 C-157.44255731 296.62734955 -158.99008324 296.63527984 -160.53755569 296.64853668 C-180.13066144 296.80435185 -196.33882507 291.73416859 -210.59375 277.859375 C-225.42155157 261.80613528 -228.95194552 244.19667857 -228.14794922 223.0859375 C-227.75724137 217.38619951 -226.34512969 212.5092452 -223.95703125 207.30078125 C-223.47105469 206.21925781 -222.98507813 205.13773438 -222.484375 204.0234375 C-214.31986787 187.48210744 -201.08163907 176.71010724 -183.95703125 170.30078125 C-175.74926861 167.97476436 -167.6523626 167.95563182 -159.1875 167.9296875 C-157.65969262 167.9206995 -156.13188602 167.91157734 -154.6040802 167.90232849 C-151.4127083 167.88591549 -148.22144034 167.87815242 -145.0300293 167.87524414 C-140.97189261 167.8698659 -136.91475383 167.83217675 -132.85689831 167.78649998 C-129.7038479 167.75653181 -126.55103228 167.74951635 -123.39785194 167.74851799 C-121.90332783 167.74435535 -120.40880038 167.7320833 -118.91441917 167.71100044 C-105.52799175 167.53714551 -95.00529632 170.25081311 -85.15625 179.6875 C-76.74963433 189.67688878 -75.12660863 200.48615724 -75.74365234 213.05810547 C-76.67712053 222.86913381 -82.58387837 231.09587083 -89.95703125 237.30078125 C-96.83300839 241.49470023 -103.09350015 244.40747718 -111.18505859 244.4777832 C-113.11253433 244.49703606 -113.11253433 244.49703606 -115.07894897 244.51667786 C-116.48361831 244.52484482 -117.88829201 244.53228864 -119.29296875 244.5390625 C-120.35515562 244.54517579 -120.35515562 244.54517579 -121.43880081 244.55141258 C-125.18576005 244.57225233 -128.93268288 244.58656396 -132.6796875 244.59594727 C-136.54570699 244.60701712 -140.41115177 244.64142876 -144.276968 244.68111897 C-147.25386615 244.70728253 -150.23062714 244.71563873 -153.20763016 244.71922874 C-154.63257359 244.72409419 -156.0575109 244.73570717 -157.48234177 244.75426674 C-159.47815806 244.77865134 -161.47425471 244.77527404 -163.47021484 244.77075195 C-164.60478119 244.77661819 -165.73934753 244.78248444 -166.90829468 244.78852844 C-170.63488675 244.19233563 -172.27040684 242.89725742 -174.95703125 240.30078125 C-177.39991031 236.41438274 -177.1162616 232.85545849 -176.5078125 228.45703125 C-175.71695241 225.36089812 -174.22653408 223.50151127 -171.95703125 221.30078125 C-169.40143076 220.02298101 -167.56186457 220.15527741 -164.70043945 220.12719727 C-163.60202225 220.11370743 -162.50360504 220.10021759 -161.37190247 220.08631897 C-159.58292793 220.07066139 -159.58292793 220.07066139 -157.7578125 220.0546875 C-155.24413727 220.02173928 -152.73046548 219.9885278 -150.21679688 219.95507812 C-146.24489798 219.90772059 -142.27301206 219.86331573 -138.30102539 219.82397461 C-134.47396926 219.78417151 -130.64720623 219.73263421 -126.8203125 219.6796875 C-125.0465197 219.66706627 -125.0465197 219.66706627 -123.2368927 219.65419006 C-112.86720786 219.62509821 -112.86720786 219.62509821 -104.01953125 214.80078125 C-101.44570822 211.31201116 -101.24000511 207.95227739 -101.4765625 203.70703125 C-102.30089839 199.57864986 -103.73401643 198.04377259 -106.95703125 195.30078125 C-112.99711298 192.9936786 -118.74469214 193.00970615 -125.15625 193.03515625 C-126.22768753 193.0332428 -127.29912506 193.03132935 -128.4030304 193.02935791 C-130.6647668 193.02800079 -132.92651112 193.03166411 -135.18823242 193.04003906 C-138.61590504 193.05069228 -142.04304726 193.04015465 -145.47070312 193.02734375 C-147.67838656 193.02866645 -149.88606966 193.03123114 -152.09375 193.03515625 C-153.10354416 193.03110779 -154.11333832 193.02705933 -155.1537323 193.02288818 C-169.25457275 193.11382714 -181.53502237 195.43068595 -192.13671875 205.28125 C-200.3428878 214.3855191 -202.5767248 224.26678343 -202.265625 236.2890625 C-201.67069644 246.7681983 -196.5988068 254.94587564 -189.11328125 262.05078125 C-178.66667527 270.61357304 -166.15178196 271.45376493 -153.203125 271.46875 C-152.18460953 271.4720784 -151.16609406 271.4754068 -150.11671448 271.47883606 C-147.96770679 271.48387868 -145.81869133 271.48624521 -143.66967773 271.48608398 C-140.42873762 271.4882583 -137.18814512 271.50640928 -133.94726562 271.52539062 C-109.99537901 271.59238633 -88.68625216 269.17380141 -70.41015625 251.9609375 C-57.38955218 237.84146079 -52.72059739 221.60984674 -53.4765625 202.65625 C-54.65750358 185.93567117 -62.78582091 171.67483564 -74.95703125 160.30078125 C-90.79144632 148.24877097 -106.88838723 145.15463017 -126.2734375 145.1328125 C-127.32877182 145.1294841 -128.38410614 145.1261557 -129.47142029 145.12272644 C-131.69424 145.11769194 -133.91706717 145.11531703 -136.13989258 145.11547852 C-139.48597144 145.11330307 -142.83171411 145.09513996 -146.17773438 145.07617188 C-176.48789143 144.99453707 -203.6445748 149.28424597 -225.95703125 171.30078125 C-244.30530916 190.27456863 -250.54100438 212.84252113 -250.2265625 238.6875 C-249.58036668 261.20885683 -237.79653349 281.76100759 -221.95703125 297.30078125 C-199.43385599 316.8649613 -171.97357493 319.53592139 -143.39282227 319.75 C-141.28160977 319.77241157 -139.17040375 319.79543984 -137.0592041 319.81903076 C-130.19321184 319.89137923 -123.32715259 319.94245515 -116.4609375 319.98828125 C-115.28690455 319.99617298 -114.1128716 320.00406471 -112.9032619 320.01219559 C-101.80675555 320.08493665 -90.71022149 320.14770993 -79.61355686 320.19041443 C-65.49373457 320.24559454 -51.37591627 320.34735515 -37.25692803 320.51136303 C-27.28443296 320.62323813 -17.3124799 320.680925 -7.33937973 320.69936085 C-1.40125931 320.71181695 4.53449439 320.74752598 10.47192192 320.84213257 C16.05860331 320.93007528 21.64164764 320.95026537 27.22890472 320.92087555 C29.26462479 320.92152757 31.30051252 320.94566758 33.33559608 320.9965744 C48.70146921 321.36031131 57.04121838 317.32799428 68.28609955 306.90031242 C70.4781992 304.90452826 72.80605019 303.15316206 75.21875 301.43359375 C75.9096875 300.92957031 76.600625 300.42554688 77.3125 299.90625 C77.98667969 299.41769531 78.66085937 298.92914063 79.35546875 298.42578125 C86.14659746 293.46303335 92.8645135 288.414079 99.54296875 283.30078125 C106.92928884 277.64712163 114.37491607 272.08607736 121.87890625 266.58984375 C127.81968359 262.22801055 133.69048792 257.78021928 139.54296875 253.30078125 C148.52336557 246.42759566 157.59246224 239.68417946 166.72387695 233.01318359 C168.88617132 231.41655946 171.03806328 229.80708079 173.18791199 228.1937561 C173.90948581 227.65233286 174.63105963 227.11090961 175.37449932 226.55307961 C176.20039169 225.93319192 176.20039169 225.93319192 177.04296875 225.30078125 C175.79095673 225.29935623 174.5389447 225.29793121 173.24899292 225.29646301 C161.44833531 225.27979153 149.64802246 225.23701292 137.84754753 225.16869068 C131.78080173 225.13440411 125.71430821 225.10930803 119.64746094 225.10522461 C113.7922633 225.10094536 107.93763494 225.07251262 102.0826149 225.02734947 C99.8491561 225.0143627 97.61562921 225.01007093 95.3821373 225.01462746 C92.25266853 225.01952481 89.12486903 224.9934776 85.99560547 224.96020508 C85.07275253 224.96883072 84.1498996 224.97745636 83.19908142 224.98634338 C78.84714195 224.9088094 75.93977259 224.67396959 72.48342896 221.88456726 C68.71395942 217.89372052 68.65269463 215.18938478 68.68359375 209.8515625 C69.26256909 205.74209621 71.04211804 204.08728548 74.04296875 201.30078125 C76.71489007 199.96482059 78.76137418 200.16566693 81.7545929 200.15361023 C82.97016876 200.14645493 84.18574463 200.13929962 85.43815613 200.13192749 C86.79251073 200.12908711 88.14686561 200.1263754 89.5012207 200.1237793 C90.92195808 200.11751553 92.34269381 200.11086881 93.76342773 200.10386658 C97.6292185 200.08644913 101.4949969 200.07590285 105.36081719 200.06766105 C107.77535419 200.06251257 110.18988734 200.05643678 112.60442162 200.05014992 C120.15694625 200.03109594 127.70946109 200.01686513 135.26200515 200.00853795 C143.98389772 199.99876307 152.70553667 199.97243805 161.42733985 199.93203706 C168.16625826 199.90189097 174.90510391 199.88707053 181.64408845 199.88375694 C185.67018674 199.88140476 189.69601414 199.87242289 193.72204018 199.84729576 C197.51009497 199.82403604 201.29770014 199.81977305 205.0858078 199.83005714 C206.47536145 199.83055313 207.86493707 199.82421403 209.25442314 199.8105011 C211.15299779 199.79281385 213.05176719 199.80226336 214.95039368 199.81303406 C216.01246694 199.8106457 217.0745402 199.80825735 218.16879749 199.80579662 C221.76467428 200.42507208 223.42692393 201.81081933 226.04296875 204.30078125 C227.81957934 207.04694457 228.40424374 209.35902361 228.54296875 212.61328125 C228.6203125 213.69029297 228.6203125 213.69029297 228.69921875 214.7890625 C226.79529259 222.07611323 219.29917914 226.62839346 213.48046875 230.73828125 C211.78003061 231.96445657 210.08085777 233.19238809 208.3828125 234.421875 C207.5047998 235.05593262 206.62678711 235.68999023 205.72216797 236.34326172 C201.27544072 239.59220095 196.91160643 242.9479927 192.54296875 246.30078125 C185.15737182 251.95536831 177.71100131 257.51549987 170.20703125 263.01171875 C164.26625442 267.37355157 158.39543615 271.82132673 152.54296875 276.30078125 C145.15655083 281.9543152 137.71102409 287.51548319 130.20703125 293.01171875 C124.26625263 297.37355288 118.39549786 301.82140534 112.54296875 306.30078125 C105.14261891 311.96354551 97.69022044 317.54544374 90.17407227 323.0534668 C83.19234999 328.17378854 76.26953946 333.3707742 69.36303711 338.59204102 C68.56518799 339.19330811 67.76733887 339.7945752 66.9453125 340.4140625 C66.23882568 340.94813721 65.53233887 341.48221191 64.80444336 342.0324707 C60.71467185 344.97721956 56.67313299 344.44893091 51.81225586 344.44795227 C50.84319463 344.45162896 49.8741334 344.45530565 48.87570667 344.45909375 C45.60723669 344.47016381 42.33879846 344.4739802 39.0703125 344.4777832 C36.73471983 344.48404582 34.39912816 344.49069243 32.0635376 344.49769592 C24.36918843 344.51877911 16.67483897 344.52910861 8.98046875 344.5390625 C6.3304544 344.54310977 3.68044016 344.54722668 1.03042603 344.55141258 C-10.00138517 344.56843579 -21.03319538 344.58292372 -32.0650177 344.59016132 C-34.92941285 344.59207109 -37.793808 344.59399143 -40.65820312 344.59594727 C-41.37009808 344.59643101 -42.08199303 344.59691475 -42.81546056 344.59741315 C-54.31364049 344.6056898 -65.81171558 344.63098154 -77.30984986 344.66352794 C-89.1321919 344.69671681 -100.95448095 344.71462119 -112.77686977 344.71780556 C-119.40730506 344.71996107 -126.0376055 344.72901714 -132.66799927 344.75426674 C-138.91919052 344.77768462 -145.17010943 344.78172575 -151.42133331 344.77150536 C-153.70361491 344.77101305 -155.98591052 344.77724214 -158.26815033 344.7910614 C-188.56788157 344.96410857 -214.80515264 337.49395333 -237.95703125 317.30078125 C-238.98183594 316.49253906 -238.98183594 316.49253906 -240.02734375 315.66796875 C-260.28162918 299.34973879 -272.26106505 272.59903263 -275.95703125 247.30078125 C-276.86683797 231.11249613 -276.97132775 214.84317921 -271.95703125 199.30078125 C-271.74804199 198.62450684 -271.53905273 197.94823242 -271.32373047 197.25146484 C-266.68454011 182.56243289 -258.95754839 169.96805125 -248.95703125 158.30078125 C-248.18359375 157.31078125 -248.18359375 157.31078125 -247.39453125 156.30078125 C-242.36774259 150.06756331 -236.08323575 145.46108958 -229.74169922 140.65478516 C-227.11169487 138.65943576 -224.50548805 136.63346239 -221.89453125 134.61328125 C-220.2372306 133.34078509 -218.57808846 132.07072423 -216.91845703 130.80126953 C-215.49437921 129.71185177 -214.07096326 128.62156864 -212.64794922 127.53076172 C-202.54249929 119.78685802 -192.39343497 112.11406003 -182.12255859 104.59082031 C-176.18118902 100.22880214 -170.30996406 95.78059199 -164.45703125 91.30078125 C-157.07061333 85.6472473 -149.62508659 80.08607931 -142.12109375 74.58984375 C-136.18031513 70.22800962 -130.30956036 65.78015716 -124.45703125 61.30078125 C-117.04750126 55.63099232 -109.5868406 50.04076292 -102.05957031 44.52832031 C-97.09842447 40.89180248 -92.17701477 37.20746603 -87.27441406 33.49243164 C-59.98045461 12.85066105 -35.04327609 -0.03811917 0 0 Z M-66.296875 49.59765625 C-70.86146874 53.2554595 -75.54325366 56.73072349 -80.26953125 60.17578125 C-87.05944391 65.14022295 -93.7785374 70.18745395 -100.45703125 75.30078125 C-107.07641482 80.36740998 -113.73208172 85.37510931 -120.45703125 90.30078125 C-129.94677987 97.25197952 -139.29945481 104.37775802 -148.63427734 111.53515625 C-151.58181884 113.77570913 -154.56207325 115.97069488 -157.55200195 118.15429688 C-158.24749146 118.72180664 -158.24749146 118.72180664 -158.95703125 119.30078125 C-158.95703125 119.63078125 -158.95703125 119.96078125 -158.95703125 120.30078125 C-158.29098877 120.30442688 -157.62494629 120.30807251 -156.9387207 120.31182861 C-149.92885976 120.35404052 -142.91963023 120.42364951 -135.91015625 120.50830078 C-133.30345005 120.53631257 -130.69666203 120.55762416 -128.08984375 120.57177734 C-99.51065827 120.73615149 -74.634266 125.58701913 -53.2578125 145.87890625 C-39.10049757 160.78134301 -29.35804473 180.87153498 -28.640625 201.57421875 C-28.5777832 203.30478516 -28.5777832 203.30478516 -28.51367188 205.0703125 C-28.47435547 206.26011719 -28.43503906 207.44992187 -28.39453125 208.67578125 C-28.35134766 209.88878906 -28.30816406 211.10179687 -28.26367188 212.3515625 C-28.15797612 215.33453157 -28.05587804 218.31757867 -27.95703125 221.30078125 C-21.93135007 217.39964033 -16.20255078 213.26224006 -10.58203125 208.80078125 C-4.34600396 203.89978895 1.95286904 199.1070219 8.35546875 194.42578125 C15.14459778 189.46024223 21.86444847 184.41412879 28.54296875 179.30078125 C35.1623552 174.23415032 41.81810765 169.22657666 48.54296875 164.30078125 C58.00562392 157.36702517 67.35190652 150.28345653 76.65405273 143.13598633 C78.27006032 141.89454238 79.88946877 140.6575149 81.51196289 139.42456055 C94.85261435 129.21196772 104.05760289 116.0703715 107.04296875 99.30078125 C108.69255677 79.34494238 105.54146181 63.55586187 92.9453125 47.65234375 C81.29853089 33.9719971 65.61141754 26.22349507 47.8352356 24.51034546 C43.13315708 24.15744675 38.44002772 24.13811746 33.7265625 24.1328125 C32.14356102 24.1278199 32.14356102 24.1278199 30.52857971 24.12272644 C28.30576 24.11769194 26.08293283 24.11531703 23.86010742 24.11547852 C20.51402856 24.11330307 17.16828589 24.09513996 13.82226562 24.07617188 C-17.950687 23.9905973 -41.38897047 29.62545589 -66.296875 49.59765625 Z " fill="#000000" transform="translate(279.95703125,163.69921875)"/>
</svg>
