<svg version="1.1"
      xmlns="http://www.w3.org/2000/svg"
      xmlns:xlink="http://www.w3.org/1999/xlink"  id="snapshot-02760" width="250" height="250" viewBox="0 0 250 250"><desc>This image was made on Patterninja.com</desc><defs>
<!-- image 52823 -->
<g id="transformed-52823" data-image="52823" transform="translate(126.5418324960436, 5.581832496043582) rotate(58, 49.248167503956395, 49.24816750395642)"><g><svg version="1.1" width="98.49633500791279px" height="98.49633500791283px" viewBox="0 0 98.49633500791279 98.49633500791283"><g id="original-52823"><svg xmlns="http://www.w3.org/2000/svg" viewBox="0 0 500 500" xmlns:xlink="http://www.w3.org/1999/xlink" version="1.1" preserveAspectRatio="xMidYMid meet">
  <path d="M75.305 62.566l2.315-.015a516.99 516.99 0 0 1 4.815.003c2.428.008 4.853-.02 7.28-.052 9.886-.044 17.441.912 26.035 6.186 7.834 8.051 10.565 16.54 10.55 27.574l.014 2.284c.005 1.579.006 3.158.002 4.736-.004 2.41.02 4.818.045 7.228.003 1.542.003 3.084.002 4.627l.028 2.165c-.04 4.4-.684 7.199-3.391 10.698-2.853 1.427-4.835 1.31-8 1-2.662-1.53-2.662-1.53-5-4-.481-2.81-.653-5.032-.602-7.836l-.024-2.294a466.68 466.68 0 0 1 .001-7.245c.004-2.408 0-4.816-.02-7.224-.013-1.496-.01-2.992.01-4.488-.03-5.524-1.339-9.465-4.865-13.725-4.616-3.655-11.662-2.451-17.214-2.483a322.67 322.67 0 0 1-4.18-.062 375.26 375.26 0 0 0-6.063-.069l-3.656-.044c-4.08.566-6.199 1.904-9.387 4.47-3.639 5.458-3.145 11.126-3.134 17.476l-.007 2.906c-.006 3.215-.005 6.431-.004 9.647l-.01 6.914c-.01 6.262-.012 12.524-.012 18.787-.001 5.226-.005 10.452-.008 15.678a48530.476 48530.476 0 0 0-.01 36.988v2.115c0 11.315-.01 22.63-.023 33.944-.015 11.622-.022 23.245-.02 34.867 0 6.523-.003 13.046-.014 19.57-.01 6.134-.01 12.269-.003 18.403.002 2.252 0 4.503-.007 6.755-.008 3.073-.003 6.147.005 9.22l-.016 2.7c.033 6.008.257 11.57 4.2 16.405 5.126 4.038 12.05 2.811 18.26 2.81 2.163.002 4.327.02 6.49.04 1.383.003 2.766.005 4.149.005l3.798.013c3.276-.236 5.48-.702 8.366-2.243 1.325-2.395 1.325-2.395 2-5l1-3c.094-2.388.125-4.778.125-7.167l.004-2.227c.004-2.469 0-4.938-.003-7.407l.006-5.302c.004-3.809.006-7.618.006-11.427.001-6.021.014-12.042.03-18.063l.007-3.077.016-6.23c.035-14.02.062-28.039.06-42.059-.002-9.453.014-18.907.05-28.36.019-5.005.028-10.01.016-15.015-.012-4.705 0-9.41.03-14.116.006-1.729.004-3.457-.007-5.186-.014-2.357.003-4.712.027-7.07l.005-4C110 149 110 149 112.348 146.572c3.228-1.912 4.958-2.121 8.652-1.571 3.136 1.78 3.841 2.523 5 6 .082 1.773.107 3.55.098 5.324l-.008 2.808-.027 3.555L126 174h35c-.157-7.778-.157-7.778-.36-15.554-.085-8.418 1.284-15.086 6.184-22.032 7.354-7.061 14.863-10.56 25.176-10.414 6.334.684 11.447 2.97 17 6l1.215-1.39c6.537-7.057 13.32-10.124 22.937-10.72 6.325.244 12.282 2.153 17.848 5.11l1.18-1.574c5.426-6.765 11.625-11.012 20.32-12.364 8.628-.5 16.53 1.84 23.5 6.938 2.257 2.16 4.308 4.367 6 7v2l1.66-.875c8.596-4.025 17.577-4.889 26.723-2.09 8.462 3.807 13.89 9.253 17.289 17.88 1.993 6.279 1.65 12.627 1.515 19.147L349 174h37l-.105-18.46c-.016-3.875-.03-7.748-.041-11.622-.018-6.14-.04-12.28-.08-18.42-.033-4.954-.05-9.908-.059-14.862a990.4 990.4 0 0 0-.032-5.652c-.195-23.53-.195-23.53 6.735-32.386 6.253-6.316 13.618-9.763 22.52-9.927l2.207-.007 2.33-.02c1.622-.01 3.243-.015 4.864-.015 2.456-.004 4.91-.04 7.366-.078 15.337-.112 15.337-.112 22.295 4.449l2.453 1.57c6.705 5.801 10.449 12.307 11.392 21.198.283 4.077.258 8.147.217 12.232l-.013 2.637c-.012 2.12-.03 4.242-.049 6.363l2.076-.032c3.141-.042 6.283-.067 9.424-.093 1.078-.017 2.155-.034 3.266-.05 8.852-.055 16.048.459 23.234 6.175 4.702 5.224 6.247 8.722 6.274 15.767l.016 2.06c.015 2.277.016 4.553.016 6.83a3499.309 3499.309 0 0 1 .061 18.207c.004 2.773.01 5.546.017 8.318a13405 13405 0 0 1 .042 29.03c.003 9.014.033 18.027.075 27.041.035 7.743.05 15.486.05 23.228.002 4.623.01 9.245.039 13.868.026 4.35.028 8.7.012 13.05a428.38 428.38 0 0 0 .02 4.78c.09 9.504-.353 16.195-7.03 23.324-7.135 6.671-15.903 5.751-25.03 5.622l-3.662-.027c-2.967-.024-5.933-.057-8.9-.098l.07 3.77c.352 26.33.352 26.33-8.894 36.171-6.703 6.308-13.589 8.522-22.63 8.563l-2.367.03c-1.644.015-3.288.022-4.931.022a365.85 365.85 0 0 0-7.432.118c-10.738.115-19.98-.974-28.069-8.875-9.227-10.449-8.153-23.516-8.04-36.588a3431.484 3431.484 0 0 1 .087-20.764c.03-5.122.044-10.243.06-15.365.032-10.027.084-20.055.146-30.082h-24l.125 6.875c.045 14.925-4.213 23.776-13.875 34.937l-1.56 1.817c-2.489 2.887-5.007 5.711-7.655 8.453-6.702 7.297-8.108 13.19-7.838 23.116.154 6.299.154 6.299-1.986 9.364-3.213 2.09-5.461 1.907-9.211 1.438-3.185-1.76-3.833-2.499-5-6-.283-3.745-.278-7.495-.313-11.25l-.087-3.105c-.074-8.778 2.034-13.448 8.087-19.895 15.885-16.043 15.885-16.043 22.442-36.46l.01-2.742-.006-2.923.003-3.037c0-2.114-.001-4.23-.006-6.344-.005-3.232 0-6.465.007-9.697 0-2.057-.002-4.115-.004-6.172l.006-2.923-.01-2.741-.002-2.397c-.138-2.514-.58-4.86-1.127-7.314-3.44-1.147-6.134-1.148-9.763-1.177l-2.07-.02c-2.26-.02-4.52-.031-6.78-.041l-2.343-.013c-4.092-.02-8.183-.035-12.275-.044a1865 1865 0 0 1-12.66-.085c-3.25-.027-6.5-.035-9.752-.038-1.555-.005-3.11-.017-4.665-.035-2.181-.025-4.36-.024-6.54-.017l-3.755-.018c-4.057.583-6.224 1.942-9.397 4.488-1.527 2.906-1.92 5.73-2 9 1.126 3.577 2.14 5.32 5.068 7.639 3.995 1.855 7.424 1.783 11.776 1.767l2.566.033c2.696.034 5.393.05 8.09.061 3.552.015 7.104.048 10.656.094l2.46-.01c4.609.062 7.65.42 11.384 3.416 2 3 2 3 1.875 6.5-.875 3.5-.875 3.5-2.586 5.196-2.804 1.598-4.565 1.676-7.783 1.671l-3.385.017-3.701-.028-3.91.007c-3.537.005-7.074-.009-10.612-.026-3.71-.015-7.42-.014-11.131-.015-6.239-.003-12.477-.018-18.715-.04-7.98-.03-15.961-.04-23.942-.044-6.884-.004-13.77-.017-20.654-.03-2.2-.005-4.4-.008-6.599-.01-4.124-.006-8.247-.021-12.37-.037l-3.659-.003c-6.995-.035-13.874-.391-20.828-1.158.688 13.046 1.88 20.277 10.503 30.25 2.99 3.497 5.89 7.069 8.81 10.625l3.55 4.305 1.643 2.003a763.643 763.643 0 0 0 3.85 4.637c2.703 3.584 2.772 6.507 2.784 10.86l.018 3.586.003 3.939.015 4.144c.013 3.754.02 7.508.024 11.263l.012 7.036c.013 7.337.023 14.675.027 22.013.004 8.471.022 16.942.05 25.413.023 6.548.033 13.096.034 19.644.001 3.91.007 7.822.025 11.732.016 3.68.018 7.358.01 11.037-.002 1.992.012 3.984.026 5.976l-.017 3.603.005 3.125c-.433 3.273-1.435 5.158-3.372 7.809-3.092 1.546-5.594 1.294-9 1-2.711-2.056-3.86-3.24-4.485-6.62l.02-3.033-.007-3.491.053-3.82c.004-1.343.007-2.687.008-4.031.005-2.893.022-5.786.047-8.68.04-4.581.045-9.163.043-13.745.002-13.028.05-26.057.132-39.085.046-7.197.062-14.393.048-21.59-.007-4.548.021-9.093.077-13.64.026-2.842.019-5.682.002-8.524a270.74 270.74 0 0 1 .076-5.784c-.105-9.04-2.76-13.568-9.014-19.957l-2.469-3.031-2.031-2.469-2.262-2.773a429.173 429.173 0 0 0-4.445-5.329C150.518 271.084 149.86 260.82 150 245h-24l.048 7.736c.05 8.461.083 16.923.107 25.385.016 5.127.037 10.254.071 15.381.033 4.954.05 9.908.059 14.862a990.4 990.4 0 0 0 .032 5.652c.203 24.42.203 24.42-8.064 33.783-8.042 7.855-17.285 9.01-27.972 8.924l-2.445-.05a300.156 300.156 0 0 0-7.39-.028c-9.745-.034-17.831-.684-26.032-6.47-9.506-9.9-10.609-19.934-10.476-33.175l.013-2.637c.012-2.12.03-4.242.049-6.363l-2.26.048c-3.413.062-6.826.101-10.24.14l-3.555.076c-8.223.069-15.305-.378-21.757-6.077l-1.645-1.394c-3.935-4.573-4.92-8.88-4.937-14.8l-.019-2.066c-.016-2.27-.012-4.54-.007-6.811a2441.422 2441.422 0 0 1-.049-18.183c0-3.7-.008-7.4-.017-11.1-.019-8.733-.022-17.464-.015-26.196.007-9-.016-17.998-.053-26.997-.031-7.734-.042-15.468-.038-23.203.002-4.616-.004-9.231-.028-13.847-.023-4.342-.02-8.684 0-13.026.003-1.59-.002-3.18-.016-4.77C-.767 124.17-.767 124.17 5 118c6.333-5.87 12.316-7.143 20.836-7.098l3.223.01 3.316.025 3.387.014c2.746.012 5.492.028 8.238.049l-.07-3.77c-.352-26.33-.352-26.33 8.894-36.171 6.662-6.27 13.487-8.53 22.48-8.493zM404.75 84.5c-2.28 3.256-2.875 5.7-2.884 9.58l-.014 2.525v2.775l-.01 2.948c-.011 3.275-.015 6.55-.019 9.825l-.02 7.026c-.017 6.375-.028 12.749-.036 19.123l-.018 11.943a37321.912 37321.912 0 0 0-.044 41.654l-.002 2.154c-.008 11.515-.033 23.03-.066 34.544-.033 11.824-.05 23.649-.054 35.473-.002 6.638-.011 13.276-.036 19.914a3488.69 3488.69 0 0 0-.018 18.736c0 2.291-.006 4.583-.02 6.874-.017 3.13-.01 6.26.003 9.39l-.033 2.742c.06 5.878 1.18 10.368 4.521 15.274 3.839 3.287 7.14 3.385 12.094 3.398l2.027.01a407.36 407.36 0 0 0 4.226-.017c2.147-.016 4.292 0 6.438.02a5138393630.068 5138393630.068 0 0 0 7.88-.022c4.796-.56 7.313-2.31 10.585-5.764 2.9-4.35 2.878-8.632 2.924-13.76l.04-3.68.032-3.947.049-4.067c.07-5.744.13-11.488.182-17.233.032-3.52.073-7.04.12-10.56.024-1.993.037-3.986.05-5.98l.05-3.65.031-3.225C453 266 453 266 455 264c2.094-.266 2.094-.266 4.5-.25l2.406-.016C464 264 464 264 466 266c1.024 3.047 1.186 6.006 1.316 9.203l.127 2.969.12 3.078.13 3.125c.106 2.542.208 5.083.307 7.625 3.917.087 7.833.14 11.75.188l3.367.076 3.242.029 2.984.048c3.107-.399 4.43-1.167 6.657-3.341 1.092-3.277 1.131-5.685 1.14-9.136l.018-3.891.003-4.28.015-4.498c.013-4.077.02-8.153.024-12.23l.012-7.639c.013-7.966.023-15.931.027-23.897.004-9.198.022-18.396.05-27.593.023-7.109.033-14.217.034-21.326.001-4.246.007-8.492.025-12.738.016-3.994.018-7.988.01-11.982-.001-1.465.003-2.93.013-4.396a563.24 563.24 0 0 0-.004-6.004l.005-3.394c-.423-3.407-1.286-5.286-3.372-7.996-3.06-1.02-5.124-1.115-8.324-1.098l-3.115.01-3.248.025-3.284.014c-2.676.012-5.353.028-8.029.049l-.01 1.735c-.081 13.939-.174 27.877-.278 41.815-.05 6.74-.096 13.48-.134 20.221-.036 6.504-.083 13.007-.136 19.51a2669.87 2669.87 0 0 0-.045 7.448c-.017 3.474-.046 6.948-.078 10.422l-.007 3.12c-.01.948-.022 1.898-.034 2.876l-.016 2.489c-.308 2.778-1 4.872-2.262 7.364-3.4 1.738-5.115 2.256-8.813 1.187C454 244 454 244 453 243a115 115 0 0 1-.145-5.806l-.02-3.823-.009-4.235-.02-4.43a5902.91 5902.91 0 0 1-.036-9.562c-.015-5.043-.04-10.086-.065-15.129-.071-14.342-.13-28.685-.182-43.028-.028-7.915-.064-15.83-.106-23.745-.027-5.01-.045-10.02-.056-15.03-.01-3.124-.027-6.248-.047-9.372-.007-1.445-.011-2.89-.012-4.335a842.202 842.202 0 0 0-.03-5.937l-.013-3.351c-.343-4.258-.92-8.593-3.697-11.96-6.514-4.722-11.444-4.475-19.256-4.497-2.1-.01-4.2-.04-6.3-.073l-4.026-.015-3.69-.028c-4.841.524-7.33 2.289-10.54 5.856zM16 130c-1.092 3.277-1.131 5.685-1.14 9.136l-.018 3.891-.003 4.28-.015 4.498c-.013 4.077-.02 8.153-.024 12.23l-.012 7.639c-.013 7.966-.023 15.931-.027 23.897-.004 9.198-.022 18.396-.05 27.593-.023 7.109-.033 14.217-.034 21.326-.001 4.246-.007 8.492-.025 12.738-.016 3.994-.018 7.988-.01 11.982.001 1.465-.003 2.93-.013 4.396a563.24 563.24 0 0 0 .004 6.004l-.005 3.394c.42 3.386 1.353 5.27 3.372 7.996 7.757 3.879 17.327 1 26 1V127c-20.685-1.972-20.685-1.972-28 3zm253-1c-2.94 2.706-5.842 5.876-6.147 9.984l-.03 2.462-.039 2.793-.022 3.027-.025 3.11c-.014 2.175-.024 4.35-.032 6.526-.017 3.32-.061 6.64-.105 9.961-.01 2.114-.019 4.227-.026 6.34l-.053 3.003c.018 5.837.358 9.483 4.479 13.794 2.19.813 2.19.813 4.547.586l2.558-.059 2.645-.152 2.691-.082c2.19-.07 4.372-.174 6.559-.293 4.034-5.861 4.593-10.254 4.531-17.281l.012-2.947c.003-2.047-.005-4.094-.022-6.142-.02-3.12 0-6.24.026-9.36-.003-1.997-.008-3.993-.016-5.989l.025-2.807c-.086-6-1.055-9.56-4.556-14.474-5.65-4.347-10.431-4.698-17-2zm-44 10c-4.716 5.088-5.176 8.555-5.238 15.297l-.025 2.504c-.014 1.752-.024 3.504-.032 5.256a791.67 791.67 0 0 1-.105 8.006c-.01 1.703-.019 3.406-.026 5.109l-.053 2.406c.02 5.284 1.032 8.199 4.479 12.422 3.081 2.978 5.72 3.832 10 4 4.616-1.512 7.96-3.173 11-7 2.1-4.173 2.321-8.057 2.336-12.645l.02-2.207c.01-1.538.015-3.075.015-4.612.004-2.331.04-4.66.078-6.991.058-7.668.092-14.035-4.449-20.545-5.974-4.873-11.421-4.655-18-1zm82.363 6.135c-1.756 3.69-1.812 7.013-1.797 11.017l-.015 2.357c-.007 1.64-.006 3.28.003 4.92.008 2.497-.02 4.993-.052 7.49-.002 1.6-.001 3.198.002 4.796l-.034 2.245c.068 5.119 1.108 8.214 4.53 12.04 2.19.813 2.19.813 4.547.586l2.558-.059 2.645-.152 2.691-.082c2.19-.07 4.372-.174 6.559-.293 3.303-5.051 4.603-8.779 4.531-14.875l.012-2.207c.003-1.529-.005-3.059-.022-4.588-.02-2.325 0-4.646.026-6.97-.003-1.495-.008-2.99-.016-4.485l.025-2.078c-.104-5.4-1.616-8.424-4.556-12.797-3.628-3.213-7.098-3.523-11.785-3.352-4.434.704-7.184 3.007-9.852 6.487zM182 145c-3.391 3.364-4.81 4.882-5.615 9.631l.021 3.998v2.158c.005 1.497.023 2.994.052 4.49.042 2.283.041 4.563.034 6.846.057 7.926.116 13.074 5.57 19.19 4.287 2.462 8.106 2.34 12.938 1.687 4.25-1.718 6.008-3.917 8-8 1.705-5.415 1.225-11.196 1.25-16.813l.063-3.525c.034-7.583-.452-12.742-5-18.975-5.87-4.283-11.028-4.482-17.313-.687zm-56 45v40h122l-2-9c-.012-3.145-.012-3.145.313-5.813l.3-2.707c.345-2.21.799-4.324 1.387-6.48l-2.64.727c-8.211 2.043-15.229 3.095-23.36.273-2.497-1.506-4.733-3.078-6.965-4.953-2.044-1.341-2.044-1.341-4.488-.379a587.231 587.231 0 0 0-7.36 3.894c-8.27 4.123-15.313 4.042-24.187 1.438-6.526-2.887-12.304-7.912-15.072-14.585-1.803-2.816-1.803-2.816-5.573-2.983-1.508.002-3.016.03-4.523.08l-2.135.015c-2.629.026-5.257.096-7.884.16L126 190zm221 0v2c1.637 1.04 1.637 1.04 3.688 2.063 4.884 2.927 7.296 6.667 9.312 11.937 1.116 5.076 1.31 10.2 1.563 15.375L362 230h24v-40h-39z" fill="rgba(0, 0, 0, 1)" stroke="none"/>
  <path d="M328 348c2.001 1.76 2.88 3.19 3.274 5.84.125 2.368.143 4.717.13 7.088l.02 2.73c.02 2.98.015 5.957.01 8.936l.015 6.21c.01 4.337.007 8.674-.003 13.012-.011 5.562.009 11.124.038 16.686.018 4.274.018 8.547.012 12.821 0 2.051.006 4.102.019 6.153.014 2.866.004 5.73-.013 8.596l.029 2.573c-.048 3.793-.09 5.738-2.344 8.886-3.19 2.143-5.43 1.939-9.187 1.469-3.185-1.76-3.833-2.499-5-6a235.974 235.974 0 0 1-.177-8.523l-.02-2.637c-.02-2.882-.031-5.763-.041-8.645l-.013-2.981c-.02-5.206-.035-10.412-.044-15.618-.011-5.38-.046-10.758-.085-16.137-.026-4.135-.035-8.27-.038-12.405a864.349 864.349 0 0 0-.035-5.95 738.457 738.457 0 0 1-.017-8.322l-.039-2.482c.036-3.967.225-5.855 2.413-9.286 3.777-3.63 6.063-3.162 11.096-2.014z" fill="rgba(0, 0, 0, 1)" stroke="none"/>
</svg>
</g></svg></g></g>
<!-- /image 52823 -->

<!-- image 92122 -->
<g id="transformed-92122" data-image="92122" transform="translate(-17.833852381929425, 93.45614761807055) rotate(25, 67.82385238192943, 67.82385238192946)"><g><svg version="1.1" width="135.64770476385885px" height="135.6477047638589px" viewBox="0 0 135.64770476385885 135.6477047638589"><g id="original-92122"><svg xmlns="http://www.w3.org/2000/svg" viewBox="0 0 500 500" xmlns:xlink="http://www.w3.org/1999/xlink" version="1.1" preserveAspectRatio="xMidYMid meet">
  <path d="M231 62c12.344 9.73 21.024 22.075 23 38 .942 16.99-1.886 31.049-13.313 44.25-6.945 7.304-13.54 12.088-22.988 15.707A63.368 63.368 0 0 0 211 163c5.426 5.516 10.822 10.994 16.73 16a152.255 152.255 0 0 1 5.383 5c12.387 11.965 24.951 19.31 40.718 26.068 12.06 5.182 21.872 10.473 27.427 23.057L302 235l1.25 3.125c2.29 11.83.783 21.85-5.188 32.25-6.18 7.867-13.97 14.863-24.062 16.625-12.65 1.463-22.658-1.287-34.36-5.96a303.674 303.674 0 0 0-8.226-3.075c-8.933-3.25-17.604-6.408-25.414-11.965l-.184 3.445-.123 2.244a769.57 769.57 0 0 0-.247 4.913c-.192 3.823-.465 7.531-1.016 11.324-.998 6.57-.998 6.57 1.045 12.7l2.029 2.534c2.974 3.852 5.814 7.715 8.496 11.777l2 3.024 4 6.078c3.272 4.947 6.597 9.817 10.125 14.586 3.632 4.952 6.847 10.035 9.875 15.375l1.55 2.732c13.99 25.16 32.967 69.913 24.825 98.83-3.54 10.558-9.434 18.41-19.313 23.688-10.1 4.635-21.11 5.416-31.687 1.79-10.126-4.431-17.632-11.387-22.068-21.461-3.134-8.581-4.844-17.638-6.857-26.535-3.244-14.24-6.984-27.366-14.45-40.044-2.579 2.579-3.262 5.092-4.563 8.5-2.942 7.18-6.952 12-12.437 17.5a430.517 430.517 0 0 0-2.848 3.105c-8.657 9.503-17.747 18.562-26.889 27.595l-1.538 1.525c-1.39 1.378-2.783 2.754-4.176 4.129a95.307 95.307 0 0 0-5.211 5.85c-5.06 6.051-12.59 10.361-20.338 11.796l-2.004.398C82.904 475.184 72.278 472.146 63 466c-8.285-7.324-13.266-16.548-14.223-27.563-.398-12.194 3.277-22.99 11.59-32.003a370.018 370.018 0 0 1 5.207-5.082 80.528 80.528 0 0 0 5.676-6.102c2.74-3.225 5.682-6.15 8.721-9.087 17.312-16.815 25.573-36.323 34.138-58.551a1326.68 1326.68 0 0 1 3.659-9.319c4.236-10.864 7.434-20.607 8.232-32.293.159-1.741.323-3.482.49-5.223.654-6.855 1.244-13.715 1.835-20.576.255-2.937.514-5.874.773-8.81l.23-2.727.223-2.522.19-2.212C130 242 130 242 131 239c-12.519 6.926-22.238 15.139-32.25 25.348l-2.892 2.933a624.649 624.649 0 0 0-5.679 5.839c-10.692 10.914-21.133 17.817-36.617 18.318C43.201 291.197 34.57 288.185 27 281c-8.52-8.938-11.679-18.483-11.537-30.655.803-17.726 14.484-28.528 26.224-40.282l1.601-1.603C51.093 200.67 58.948 193.328 68 187l1.66-1.204C86.502 173.59 105.27 164.448 125 158l4.136-1.358c9.94-3.26 19.897-6.465 29.864-9.642l-1.417-1.548c-10.722-11.936-15.308-25.566-14.93-41.577C144.078 87.975 150.618 75.94 162 65c19.096-15.929 48.736-18.448 69-3zm-56 15l-2.625 1.75c-7.224 6.844-11.75 16.09-12.613 25.977-.306 11.951 3.619 22.296 11.898 31.023 8.55 7.79 18.536 10.773 29.996 10.563 9.559-.894 18.697-5.436 25.317-12.383 7.92-9.652 10.944-19.522 10.027-31.93-1.77-9.476-6.771-18.907-14.445-24.914C206.702 66.964 190.693 65.82 175 77zm-16.652 87.965l-2.97.944c-2.066.66-4.13 1.33-6.19 2.005a905.484 905.484 0 0 1-9.26 2.963c-36.827 11.79-65.301 30.495-92.615 57.498l-1.467 1.437c-10.314 10.123-10.314 10.123-13.94 23.704.246 6.5 3.143 11.323 7.5 16.011C44.137 273.9 49.721 275.125 56 275c11.449-1.527 19.341-12.248 26.939-20.056 14.873-15.254 33.42-32.718 55.487-36.342 2.782.034 5.045.108 7.512 1.46 2.782 5.075 2.095 11.092 1.517 16.658l-.211 2.235c-.152 1.59-.307 3.18-.465 4.77a1449.76 1449.76 0 0 0-.73 7.57 6472.96 6472.96 0 0 1-1.814 18.8c-.517 5.302-1.026 10.603-1.526 15.906-.236 2.474-.482 4.946-.73 7.419-1.746 13.56-1.746 13.56 2.396 26.143l1.637 2.527L148 325l1.182 1.747c2.761 4.077 5.56 8.127 8.371 12.17 2.285 3.29 4.554 6.593 6.822 9.896l1.35 1.964 2.788 4.059 3.123 4.539c18.367 26.67 29.006 49.849 35.917 81.445l.834 3.735.725 3.327c2.356 8.274 7.026 13.175 14.263 17.555 6.679 1.432 12.807 1.36 18.809-2.12 5.406-3.92 8.912-8.804 10.53-15.317.648-6.813-1.172-13.41-2.714-20l-.73-3.203c-7.426-32.3-19.21-59.057-38.415-86.166-3.51-4.978-6.925-10.021-10.334-15.068-2.355-3.471-4.731-6.882-7.33-10.176l-1.291-1.69a215.923 215.923 0 0 0-3.388-4.252c-4.449-10.138-.876-24.968.155-35.726.308-3.218.608-6.436.907-9.655.743-7.99 1.498-15.979 2.254-23.968.64-6.769 1.275-13.538 1.902-20.308.294-3.148.596-6.294.898-9.441 3.179-20.072 3.179-20.072-2.628-38.347-4.148-4.384-8.367-7.568-14.52-8.3-6.863-.028-12.636 1.12-19.132 3.265zM213 190a746.168 746.168 0 0 0-3.433 31.031c-.195 2.194-.397 4.387-.598 6.58l-.383 4.244-.342 3.802c-.76 5.925-.76 5.925 1.881 10.878l2.875 2.528 2.813 2.535c7.484 5.64 16.376 8.523 25.078 11.776a1164.3 1164.3 0 0 1 6.51 2.468l4.197 1.576 1.935.742c8.257 3.054 14.452 3.358 22.467-.16 5.95-3.54 9.098-8.405 11-15 1.171-6.303-.687-11.638-4-17-5.053-5.565-10.502-8.428-17.5-10.875-16.6-6.249-30.414-14.62-42.797-27.484-2.983-2.874-6.343-5.232-9.703-7.641zm-82 141l-1.066 2.807a2025.345 2025.345 0 0 1-4.049 10.523 880.973 880.973 0 0 0-1.727 4.515c-9.202 24.226-23.843 42.256-42.318 60.233l-2.045 1.997a337.036 337.036 0 0 1-3.872 3.701c-5.97 5.786-9.53 12.105-10.173 20.474.449 6.735 2.07 11.027 7.125 15.625 4.47 3.768 8.58 5.415 14.438 5.5l2.675.086c10.306-1.577 16.666-9.62 23.575-16.711 1.107-1.12 2.216-2.238 3.326-3.355 4.986-5.043 9.834-10.14 14.445-15.53 3.943-4.413 8.324-8.439 12.613-12.51 4.562-4.452 7.649-8.458 10.053-14.355l.97-2.234a283.357 283.357 0 0 0 2.843-6.954l.982-2.365.912-2.302.827-2.052c.81-3.639-.046-6.227-1.85-9.426l-1.676-2.405-1.872-2.714-2.011-2.86-4.102-5.91-2.06-2.95a639.663 639.663 0 0 1-5.299-7.762l-1.504-2.227a958.73 958.73 0 0 1-2.745-4.09c-1.98-2.91-3.449-4.772-6.415-6.749z" fill="rgba(0, 0, 0, 1)" stroke="none"/>
  <path d="M414.013 126.605c2.917 2.048 3.662 4.77 4.776 8.02l.756 2.11c3.622 10.308 6.695 20.803 9.83 31.265l1.941 6.43A7808.838 7808.838 0 0 1 436 190l2.054.011c7.057.042 14.113.111 21.17.197 2.633.028 5.267.049 7.9.063 3.786.021 7.57.068 11.356.12l3.568.003c8.119.146 8.119.146 12.195 2.398 2.105 2.645 2.354 4.76 2.421 8.11-1.05 3.32-3.032 4.882-5.664 7.098-3.035.635-3.035.635-6.455.647l-3.894.048-4.182-.03c-1.438.002-2.877.007-4.315.014-3.01.007-6.018-.004-9.028-.027-3.85-.029-7.699-.012-11.55.018-2.968.018-5.936.012-8.904 0-1.42-.004-2.84 0-4.258.011-1.987.013-3.973-.01-5.959-.034l-3.42-.012c-4.012-.84-5.481-2.492-8.035-5.635-1.019-1.968-1.019-1.968-1.577-3.872l-.667-2.183-.65-2.308-.719-2.4a862.555 862.555 0 0 1-2.2-7.55c-.505-1.712-1.012-3.423-1.521-5.134-1.239-4.18-2.458-8.365-3.666-12.553-1.982 5.15-3.766 10.299-5.297 15.603l-.632 2.161c-.448 1.535-.895 3.07-1.34 4.605-.709 2.44-1.42 4.88-2.134 7.32-1.515 5.186-3.025 10.374-4.534 15.561-1.749 6.004-3.499 12.007-5.252 18.01a5825.67 5825.67 0 0 0-2.08 7.15c-1.896 6.512-3.817 13.017-5.862 19.484l-.88 2.796c-1.032 2.41-1.959 3.677-3.989 5.31-2.96 1.012-4.59 1.108-7.625.313-4.254-2.352-5.773-5.877-7.349-10.33l-1.083-3.03-1.146-3.27-1.215-3.41c-1.284-3.61-2.558-7.223-3.832-10.835-1.258-3.549-2.518-7.096-3.778-10.644-.821-2.313-1.642-4.627-2.46-6.941-2.765-7.801-5.593-15.577-8.52-23.318C339 188.213 339 188.213 339 186c-1.221.01-2.442.02-3.7.032-4.533.036-9.065.059-13.597.078-1.962.01-3.923.024-5.884.04-2.82.025-5.64.036-8.46.045l-2.655.032h-2.486l-2.18.014c-2.394-.283-3.98-1.006-6.038-2.241-2.097-2.696-1.995-4.093-1.812-7.563.787-3.332 1.109-4.49 3.812-6.437 2.429-1.214 4.023-1.146 6.738-1.177l2.984-.039 3.235-.022 3.319-.025c2.32-.014 4.642-.024 6.963-.032 3.549-.017 7.097-.061 10.646-.105 2.253-.01 4.506-.019 6.76-.026l3.217-.053 3.012.009 2.64-.018c3.414.67 5.03 2.054 7.486 4.488 1.323 2.493 1.323 2.493 2.312 5.32l1.151 3.214 1.182 3.45 1.256 3.548c1.095 3.1 2.176 6.204 3.25 9.311 1.102 3.175 2.221 6.344 3.34 9.512 2.186 6.21 4.354 12.425 6.509 18.645 2.144-3.216 3.103-6.262 4.151-9.924l.622-2.125c.68-2.326 1.352-4.654 2.024-6.982a7846.73 7846.73 0 0 0 5.19-17.834c1.985-6.847 3.978-13.692 5.974-20.535.687-2.363 1.372-4.726 2.056-7.09 1.082-3.727 2.18-7.45 3.289-11.17.487-1.64.968-3.283 1.445-4.927a953.567 953.567 0 0 1 2.332-7.86l.703-2.458c1.025-3.355 1.711-5.587 4.209-8.11 3.388-1.665 6.454-1.452 10.018-.38z" fill="rgba(0, 0, 0, 1)" stroke="none"/>
  <path d="M335.555 37.477c3.021 1.926 3.021 1.926 6.445 2.523 2.433-1.313 2.433-1.313 4.813-3.25 7.73-5.707 15.399-8.82 25.187-7.75 10.91 2.065 18.125 6.597 24.844 15.422 7.02 10.804 8.754 22.65 6.5 35.246-4.17 17.342-13.26 31.13-25.266 44.043a93.578 93.578 0 0 0-4.125 4.879c-2.93 3.616-6.404 6.417-9.953 9.41l-3.012 2.602-3.175 2.71-2.981 2.551c-6.265 4.727-12.197 4.888-19.832 4.137-16.991-4.137-35.988-28.017-44.895-42.154-8.982-15.001-16.228-31.74-11.828-49.545 3.611-11.496 9.821-20.504 20.578-26.301 13.318-6.115 25.275-2.417 36.7 5.477zM300.25 52.563c-4.626 5.699-6.635 11.845-6.25 19.187 3.606 24.22 22.389 43.677 40.742 58.43C337 132 337 132 338 133c2.26.531 2.26.531 5 0a67.326 67.326 0 0 0 6.625-5.313l1.863-1.655A488.196 488.196 0 0 0 357 121l1.543-1.406c13.893-12.758 27.925-30.4 28.77-50.031-.219-7.457-2.52-13.658-7.641-19.122-3.454-2.978-6.932-4.273-11.508-4.714-3.86.333-6.006 1.558-9.289 3.586l-3.07 1.863c-2.746 1.735-2.746 1.735-4.985 3.492-4.588 3.357-10.41 3.09-15.82 2.332-4.83-2.118-8.904-5.19-13.125-8.313-8.077-4.74-15.338-2.635-21.625 3.876z" fill="rgba(0, 0, 0, 1)" stroke="none"/>
</svg>
</g></svg></g></g>
<!-- /image 92122 -->
</defs><rect x="0" y="0" width="250" height="250" fill="rgba(255, 255, 255, 0)"></rect><use xlink:href="#transformed-52823" transform="translate(-250, -250)"></use><use xlink:href="#transformed-52823" transform="translate(0, -250)"></use><use xlink:href="#transformed-52823" transform="translate(250, -250)"></use><use xlink:href="#transformed-52823" transform="translate(-250, 0)"></use><use xlink:href="#transformed-52823" transform="translate(0, 0)"></use><use xlink:href="#transformed-52823" transform="translate(250, 0)"></use><use xlink:href="#transformed-52823" transform="translate(-250, 250)"></use><use xlink:href="#transformed-52823" transform="translate(0, 250)"></use><use xlink:href="#transformed-52823" transform="translate(250, 250)"></use><use xlink:href="#transformed-92122" transform="translate(-250, -250)"></use><use xlink:href="#transformed-92122" transform="translate(0, -250)"></use><use xlink:href="#transformed-92122" transform="translate(250, -250)"></use><use xlink:href="#transformed-92122" transform="translate(-250, 0)"></use><use xlink:href="#transformed-92122" transform="translate(0, 0)"></use><use xlink:href="#transformed-92122" transform="translate(250, 0)"></use><use xlink:href="#transformed-92122" transform="translate(-250, 250)"></use><use xlink:href="#transformed-92122" transform="translate(0, 250)"></use><use xlink:href="#transformed-92122" transform="translate(250, 250)"></use></svg>