<?xml version="1.0" encoding="UTF-8"?>
<svg version="1.1" xmlns="http://www.w3.org/2000/svg" width="512" height="512">
<path d="M0 0 C1.08097961 -0.00335861 2.16195923 -0.00671722 3.2756958 -0.01017761 C6.8280962 -0.01962955 10.38044916 -0.02162792 13.93286133 -0.02270508 C16.4199475 -0.02592197 18.90703348 -0.02928637 21.39411926 -0.03279114 C26.60145506 -0.03876825 31.8087743 -0.04063253 37.01611328 -0.04003906 C43.65870261 -0.0399376 50.30118196 -0.05358027 56.94375134 -0.07081127 C62.08016946 -0.08198076 67.21656208 -0.08395674 72.3529911 -0.08342934 C74.80037111 -0.08460236 77.24775192 -0.08898571 79.69511986 -0.0967617 C107.54020137 -0.17694349 132.12175218 2.73745166 153.82739258 22.14526367 C154.66012695 22.88389648 155.49286133 23.6225293 156.35083008 24.38354492 C172.87031546 39.91186118 181.57168098 60.93096822 182.28295898 83.43139648 C182.59830439 107.57091384 174.29455394 125.45249785 163.93904114 146.72172546 C160.49559176 153.79948825 157.17886721 160.93217816 153.88989258 168.08276367 C153.3883667 169.16565674 152.88684082 170.2485498 152.37011719 171.36425781 C151.91386963 172.35288818 151.45762207 173.34151855 150.98754883 174.36010742 C150.3940564 175.64582642 150.3940564 175.64582642 149.78857422 176.95751953 C148.74133613 179.24996707 148.74133613 179.24996707 147.82739258 182.14526367 C149.25805471 184.89737274 149.25805471 184.89737274 151.32739258 187.89526367 C168.89979395 215.30836459 174.76238911 248.57451134 168.35473633 280.50024414 C160.92311178 314.19715658 141.69770826 341.25701677 113.67919922 361.0012207 C108.76941424 364.03447745 105.06077396 365.52181325 99.24291992 365.56518555 C97.954935 365.58109741 96.66695007 365.59700928 95.3399353 365.61340332 C93.94773412 365.61467026 92.55553158 365.61484765 91.16333008 365.61401367 C89.72416896 365.62112073 88.28501065 365.62882052 86.84585571 365.63708496 C83.83831892 365.65049504 80.83104456 365.65211295 77.82348633 365.64624023 C73.97178801 365.6403285 70.12134342 365.67101019 66.26988792 365.71135712 C63.30155671 365.73720986 60.33352914 365.7401142 57.36510086 365.73646545 C55.94492043 365.73815712 54.52472604 365.74780438 53.10465622 365.76560974 C51.12091912 365.78775882 49.13688463 365.77490114 47.15307617 365.76049805 C46.02533783 365.76255249 44.89759949 365.76460693 43.73568726 365.76672363 C40.82739258 365.14526367 40.82739258 365.14526367 38.46328735 362.79431152 C36.44899704 359.53251773 36.19877629 357.91696139 36.82739258 354.14526367 C38.50564575 351.48905945 38.50564575 351.48905945 40.82739258 349.14526367 C43.45407104 348.57331848 43.45407104 348.57331848 46.4753418 348.64453125 C47.61107635 348.65716507 48.74681091 348.66979889 49.91696167 348.68281555 C51.14295074 348.71811874 52.36893982 348.75342194 53.63208008 348.78979492 C56.2440502 348.80746309 58.85603038 348.82369209 61.46801758 348.83862305 C65.57381829 348.88481082 69.67854655 348.95495314 73.78344727 349.05224609 C94.14544567 349.98165876 94.14544567 349.98165876 111.36621094 340.67041016 C112.58449585 339.42046265 112.58449585 339.42046265 113.82739258 338.14526367 C115.37886451 336.88160189 116.9391859 335.62857414 118.51489258 334.39526367 C137.09189578 317.1994503 150.62538621 290.8411231 151.96972656 265.45776367 C152.95203149 234.58389495 146.20850692 207.98080417 125.82739258 184.14526367 C125.38395508 183.55745117 124.94051758 182.96963867 124.48364258 182.36401367 C109.3902665 162.85306411 81.80418217 151.34271608 58.20239258 147.89526367 C33.68945479 145.06781874 11.21868205 150.17111353 -10.17260742 162.14526367 C-11.1703418 162.70084961 -12.16807617 163.25643555 -13.19604492 163.82885742 C-32.36528057 175.28096525 -44.53412242 192.84086059 -54.55932617 212.29614258 C-57.89833942 218.73198756 -57.89833942 218.73198756 -61.48510742 219.89526367 C-65.38701717 220.25823202 -67.76731419 219.06597303 -70.98510742 216.95776367 C-72.9146315 214.0127006 -72.43915637 211.61039995 -72.17260742 208.14526367 C-71.21952068 205.22022454 -69.92010424 202.51958597 -68.54760742 199.77026367 C-68.18803955 199.02292969 -67.82847168 198.2755957 -67.45800781 197.50561523 C-65.08555535 192.67554804 -62.46606006 188.22846128 -59.10620117 184.00463867 C-57.76931829 181.34206022 -58.4023706 180.01501697 -59.17260742 177.14526367 C-60.18240423 174.7799196 -61.22718806 172.47945773 -62.34838867 170.16870117 C-62.6698436 169.49411865 -62.99129852 168.81953613 -63.32249451 168.12451172 C-64.01338998 166.67504332 -64.70654278 165.22664912 -65.4017334 163.77923584 C-67.23804965 159.95028367 -69.04979765 156.10972353 -70.86401367 152.27026367 C-71.22957367 151.49742035 -71.59513367 150.72457703 -71.97177124 149.92831421 C-86.05052243 120.14569213 -98.96005204 91.30433684 -87.17260742 58.14526367 C-86.74850586 56.95030273 -86.3244043 55.7553418 -85.88745117 54.52416992 C-77.35873584 32.83415014 -61.38403247 17.44277149 -40.73510742 7.33276367 C-27.54030866 1.70012432 -14.20792578 -0.00642418 0 0 Z M-58.17260742 41.14526367 C-69.32549501 54.37413429 -74.34654069 69.96807537 -74.61010742 87.02026367 C-74.63250488 87.90512451 -74.65490234 88.78998535 -74.67797852 89.70166016 C-74.62548365 104.89892481 -67.71842601 118.16394136 -61.36010742 131.58276367 C-60.5694379 133.27046718 -59.77971971 134.95861671 -58.9909668 136.6472168 C-57.45734344 139.92641411 -55.91823286 143.20292689 -54.37329102 146.47680664 C-52.26971695 150.93496716 -50.18115665 155.40000704 -48.09838867 159.86791992 C-47.79990524 160.50805527 -47.50142181 161.14819061 -47.19389343 161.807724 C-46.51991533 163.25346983 -45.84622408 164.69934939 -45.17260742 166.14526367 C-39.98879864 162.33071931 -35.01731556 158.38438329 -30.17260742 154.14526367 C-31.78312833 148.82931363 -34.04470886 143.94649527 -36.41870117 138.94213867 C-37.26460333 137.13884661 -38.11029997 135.33545812 -38.95581055 133.53198242 C-40.28065166 130.71574595 -41.60760634 127.90055082 -42.93847656 125.0871582 C-44.2296648 122.35414709 -45.51215641 119.61718225 -46.79370117 116.87963867 C-47.18754501 116.0532489 -47.58138885 115.22685913 -47.98716736 114.37542725 C-54.78663793 99.80663828 -57.33086773 85.25671603 -52.35620117 69.57104492 C-46.75423716 56.14039481 -37.25873501 45.79311814 -23.77807617 40.14135742 C-16.84076975 37.6949819 -10.00841801 37.02318578 -2.66430664 36.98413086 C-1.9495517 36.97916595 -1.23479675 36.97420105 -0.49838257 36.96908569 C1.84199008 36.95460054 4.18229517 36.94768816 6.52270508 36.94213867 C7.72832911 36.93789761 7.72832911 36.93789761 8.95830917 36.93357086 C13.2045499 36.91864034 17.45075713 36.90936983 21.69702148 36.9050293 C26.07622108 36.89952702 30.45511253 36.87544486 34.83421516 36.84705734 C38.21085513 36.82842837 41.5874205 36.82322542 44.96410751 36.82169342 C46.57882258 36.8186713 48.19353648 36.81065763 49.80820084 36.79750824 C52.06500094 36.78042789 54.32104212 36.78233145 56.57788086 36.78881836 C57.86026642 36.78517273 59.14265198 36.7815271 60.46389771 36.777771 C64.08590869 37.17350893 65.98088719 37.900383 68.82739258 40.14526367 C70.03268125 44.10549787 69.87945542 47.17080406 68.82739258 51.14526367 C65.29834703 52.32161219 62.48639346 52.28429864 58.76074219 52.30297852 C58.04484924 52.30805923 57.3289563 52.31313995 56.59136963 52.31837463 C55.03631245 52.32907278 53.48123993 52.33769514 51.92616081 52.34449387 C49.45733064 52.35630839 46.9886734 52.37577121 44.51991272 52.39761353 C37.50015101 52.45911884 30.48040471 52.51310996 23.46044922 52.54663086 C19.16446895 52.56769483 14.86880073 52.60309745 10.57299995 52.64738846 C8.94293479 52.66146358 7.31281438 52.67025153 5.68269157 52.67344284 C-7.03018538 52.70094846 -18.12233586 53.56803748 -28.17260742 62.14526367 C-36.44073794 70.81475975 -38.45398292 78.07057929 -38.76635742 89.87573242 C-37.80813188 101.34352837 -30.54815826 113.16766062 -25.69702148 123.4519043 C-24.53216496 125.92809038 -23.3835818 128.41144451 -22.23510742 130.89526367 C-21.49389608 132.47384739 -20.75174425 134.05198993 -20.00854492 135.62963867 C-19.6678598 136.37115173 -19.32717468 137.11266479 -18.97616577 137.87664795 C-18.11916301 139.67195565 -17.15408086 141.41486102 -16.17260742 143.14526367 C-13.32358653 144.46100249 -13.32358653 144.46100249 -11.21948242 143.32495117 C-10.46151367 142.8944043 -9.70354492 142.46385742 -8.92260742 142.02026367 C17.43497496 128.24852252 51.12984063 126.33640303 79.44848633 134.72729492 C88.53734577 137.61714722 97.19278159 141.09311875 105.82739258 145.14526367 C115.13345702 126.01199008 115.13345702 126.01199008 124.07739258 106.70776367 C124.63221313 105.48621582 124.63221313 105.48621582 125.19824219 104.23999023 C125.53476807 103.48814453 125.87129395 102.73629883 126.21801758 101.96166992 C126.50708984 101.31657471 126.79616211 100.67147949 127.09399414 100.00683594 C130.19154813 92.14436951 130.15582662 81.69486302 127.32739258 73.77026367 C122.52356127 63.72892184 115.08606609 58.10723413 104.82739258 54.14526367 C99.45927911 52.66377409 93.78063157 52.83877774 88.24536133 52.71557617 C87.46547852 52.68463867 86.6855957 52.65370117 85.88208008 52.62182617 C85.1755127 52.60200684 84.46894531 52.5821875 83.7409668 52.56176758 C81.28673737 52.02758598 80.37337516 51.09001864 78.82739258 49.14526367 C78.35864258 46.98901367 78.35864258 46.98901367 78.32739258 44.64526367 C78.28098633 43.48510742 78.28098633 43.48510742 78.23364258 42.30151367 C78.82739258 40.14526367 78.82739258 40.14526367 80.84692383 38.38354492 C84.61723224 36.81711272 88.00311152 36.73531509 92.01489258 36.83276367 C92.77229736 36.84404297 93.52970215 36.85532227 94.31005859 36.86694336 C109.2910568 37.23221633 121.18035831 41.74796324 131.99145508 52.24682617 C141.27761793 62.0894632 145.18292842 72.91222368 145.20239258 86.33276367 C145.22688477 87.20223633 145.25137695 88.07170898 145.27661133 88.9675293 C145.33634949 102.51813502 138.56157368 114.40768534 132.82739258 126.33276367 C132.10797724 127.83960766 131.38922351 129.3467677 130.67114258 130.85424805 C130.14750122 131.95314865 130.14750122 131.95314865 129.61328125 133.07424927 C128.29878645 135.8361057 126.98778597 138.59961364 125.67749023 141.36346436 C124.92867282 142.93298092 124.16619459 144.49596435 123.40161133 146.05786133 C121.39734581 149.95264793 121.39734581 149.95264793 121.06738281 154.20166016 C122.37288676 157.54027786 125.24494229 159.59188982 127.88989258 161.89526367 C128.45772461 162.40186523 129.02555664 162.9084668 129.6105957 163.43041992 C131.00937908 164.67639503 132.41749991 165.9118734 133.82739258 167.14526367 C137.23836927 164.36862741 138.74686911 160.53906637 140.55786133 156.64526367 C140.90970993 155.90126816 141.26155853 155.15727264 141.62406921 154.39073181 C142.76163796 151.97892679 143.888936 149.56250934 145.01489258 147.14526367 C145.78913694 145.49234701 146.56338825 143.8394336 147.33764648 142.18652344 C154.97531551 125.83547477 154.97531551 125.83547477 161.82739258 109.14526367 C162.2012207 108.22229492 162.57504883 107.29932617 162.96020508 106.34838867 C168.19899385 91.15118161 165.69795614 72.04546161 159.28442383 57.69213867 C149.88108262 39.18670747 136.03728692 27.16906379 116.61254883 20.22338867 C107.8973285 17.74103489 99.48193393 16.8480677 90.44360352 16.87060547 C89.36393814 16.86549454 88.28427277 16.86038361 87.17189026 16.8551178 C83.63512484 16.84132226 80.09855655 16.84217125 76.56176758 16.84448242 C74.07993499 16.84058951 71.59810306 16.83625362 69.11627197 16.83149719 C63.92506751 16.82405616 58.73393108 16.82431055 53.54272461 16.82958984 C46.92488771 16.83537635 40.30733143 16.81846255 33.68954086 16.79524517 C28.56594239 16.78043632 23.44241034 16.77964593 18.31879425 16.7827549 C15.88061213 16.78224511 13.44242596 16.77707241 11.00426483 16.76694298 C-16.52006171 16.6666276 -38.14346843 20.64326136 -58.17260742 41.14526367 Z " fill="#000000" transform="translate(330.172607421875,28.854736328125)"/>
<path d="M0 0 C2.40831518 1.15872345 4.81750118 2.31562224 7.22674561 3.47241211 C8.79865199 4.22756064 10.36999103 4.98389137 11.94073486 5.74145508 C16.10631998 7.74589649 20.28710041 9.6909422 24.5234375 11.54296875 C42.33879528 19.36038263 54.78616027 31.57051019 62.0546875 50 C70.06804729 72.58204448 69.85883627 97.83781074 63.375 120.8125 C63.16069336 121.575625 62.94638672 122.33875 62.72558594 123.125 C53.13135718 156.19506361 32.82278268 186.53305137 2.640625 204.06640625 C-14.88060698 213.43481617 -33.03786935 217.63850393 -52.5480957 212.46923828 C-63.56767145 208.98473625 -74.09098123 203.44787559 -84.55297852 198.59228516 C-87.31528821 197.31120691 -90.08038466 196.03628696 -92.84570312 194.76171875 C-94.63038016 193.93526678 -96.41489114 193.10845612 -98.19921875 192.28125 C-99.01194748 191.90713989 -99.82467621 191.53302979 -100.66203308 191.14758301 C-119.37360447 182.43451059 -132.98379937 170.49780529 -140.625 150.8125 C-148.89331887 125.4054524 -146.75020762 99.12520078 -139.625 73.8125 C-140.41036133 73.39476318 -141.19572266 72.97702637 -142.00488281 72.54663086 C-144.98050434 70.96241625 -147.95496155 69.37605432 -150.92871094 67.78833008 C-152.20430818 67.10780887 -153.48033487 66.4280919 -154.75683594 65.74926758 C-182.67566811 50.89952653 -182.67566811 50.89952653 -185.35546875 43.90625 C-188.01746094 34.61607592 -186.42825343 25.72481632 -182.3359375 17.09375 C-177.87055617 9.1659072 -172.48750342 3.5629321 -163.625 0.8125 C-154.01736169 -0.68806405 -146.7107795 4.47730489 -138.625 9 C-137.2014577 9.77840849 -135.7769837 10.55511564 -134.3515625 11.33007812 C-124.35026764 16.78716614 -124.35026764 16.78716614 -119.76171875 19.51416016 C-118.97410156 19.97999512 -118.18648438 20.44583008 -117.375 20.92578125 C-116.73046875 21.32192627 -116.0859375 21.71807129 -115.421875 22.1262207 C-113.05467108 23.03032535 -111.95381716 22.76083426 -109.625 21.8125 C-108.06967001 20.58784141 -108.06967001 20.58784141 -106.69921875 19.00390625 C-106.15789307 18.42648682 -105.61656738 17.84906738 -105.05883789 17.25415039 C-104.19440063 16.32397095 -104.19440063 16.32397095 -103.3125 15.375 C-73.36951923 -15.57751627 -37.43439227 -18.14069713 0 0 Z M-54.375 5.4375 C-55.41479004 5.70590698 -55.41479004 5.70590698 -56.47558594 5.97973633 C-80.33775433 12.50085219 -98.01853106 31.39671402 -110.625 51.8125 C-110.99463867 52.40192383 -111.36427734 52.99134766 -111.74511719 53.59863281 C-116.68993971 61.63339973 -119.97967412 70.0771533 -123 79 C-123.33410889 79.98548828 -123.66821777 80.97097656 -124.01245117 81.98632812 C-131.23068916 104.29690773 -131.70981823 129.62851383 -121.9375 151.1875 C-115.70696898 162.68040936 -106.87066888 170.4799214 -94.5 174.6875 C-93.20962126 175.06690807 -91.91816374 175.44269557 -90.625 175.8125 C-90.97433594 174.6059375 -91.32367188 173.399375 -91.68359375 172.15625 C-92.14353726 170.54175441 -92.60315534 168.92716608 -93.0625 167.3125 C-93.40764648 166.12527344 -93.40764648 166.12527344 -93.75976562 164.9140625 C-103.09063487 131.91794516 -93.52270132 96.12497964 -77.625 66.8125 C-64.39580472 43.71598414 -44.4506092 24.83582589 -19.625 15.1171875 C-16.52707981 14.15154598 -16.52707981 14.15154598 -15.625 11.8125 C-18.3301896 10.6587276 -21.03874259 9.51435241 -23.75 8.375 C-24.51054687 8.04951172 -25.27109375 7.72402344 -26.0546875 7.38867188 C-35.58571478 3.40371651 -44.35860256 2.8464096 -54.375 5.4375 Z M-163.5625 20.25 C-167.75314503 24.58444167 -169.40678492 29.61201215 -169.8125 35.5625 C-166.22852608 42.35318743 -153.84590079 46.59863415 -147.3125 50.125 C-146.12169818 50.77660753 -144.93094265 51.42829967 -143.74023438 52.08007812 C-142.61294922 52.68916016 -141.48566406 53.29824219 -140.32421875 53.92578125 C-139.30158936 54.48048096 -138.27895996 55.03518066 -137.2253418 55.60668945 C-134.64911524 57.02284166 -134.64911524 57.02284166 -131.625 56.8125 C-130.49747351 54.58458002 -129.37291861 52.35524113 -128.25 50.125 C-127.77433594 49.18624023 -127.77433594 49.18624023 -127.2890625 48.22851562 C-125.56889071 44.8060905 -124.02100999 41.37740675 -122.625 37.8125 C-123.28918945 37.45534912 -123.95337891 37.09819824 -124.63769531 36.73022461 C-127.71796033 35.07229841 -130.7967699 33.41170144 -133.875 31.75 C-134.97279785 31.15743408 -136.0705957 30.56486816 -137.20166016 29.9543457 C-143.76995209 26.39631785 -150.2681453 22.77323892 -156.6484375 18.88671875 C-160.09546722 17.01333303 -160.42078946 17.6430487 -163.5625 20.25 Z M-38.625 45.8125 C-39.82382813 46.77542969 -39.82382813 46.77542969 -41.046875 47.7578125 C-62.98868295 66.13582362 -77.19520409 96.4630769 -80.4440918 124.65185547 C-82.10635507 144.50479735 -80.89529438 164.41990199 -68.625 180.8125 C-67.51125 182.359375 -67.51125 182.359375 -66.375 183.9375 C-57.41306056 193.30680032 -47.70786993 197.14653209 -34.9375 197.796875 C-14.56717146 197.89296146 1.96481458 185.29806721 16 171.6875 C38.5431697 148.89183064 51.4774735 115.77691312 51.375 83.8125 C50.74461874 66.35732279 46.10425127 48.78921152 33.0625 36.4375 C10.08434996 17.27592625 -18.32524287 28.45948181 -38.625 45.8125 Z " fill="#000000" transform="translate(295.625,268.1875)"/>
<path d="M0 0 C1.45403775 0.68267698 2.90879943 1.36381407 4.36425781 2.04345703 C6.5273951 3.05419007 8.68977411 4.06629406 10.84902954 5.08529663 C15.72423496 7.38442158 20.64195122 9.56072961 25.59594727 11.68530273 C44.51053742 19.84986056 60.49625513 32.10488176 68.45703125 51.71484375 C71.6283027 60.42441636 73.83354826 68.54175605 72.8125 77.875 C70.79372186 81.13610315 69.49362308 81.6576203 65.875 82.8125 C62.16207588 82.88827396 60.68449397 82.1885507 57.8125 79.875 C55.75870401 76.57237568 55.27305783 73.30135937 54.625 69.5 C51.64691457 55.07583876 44.62677896 43.61361624 32.3359375 35.3828125 C23.02860743 29.82146667 12.53813239 28.52143316 2.03027344 30.9909668 C1.3809082 31.15894775 0.73154297 31.32692871 0.0625 31.5 C-0.63069336 31.67893799 -1.32388672 31.85787598 -2.03808594 32.04223633 C-26.54528504 38.73962788 -45.15127114 58.822884 -57.44360352 80.30615234 C-63.021852 90.51444299 -67.27131964 101.6408602 -70.30078125 112.8671875 C-70.61402344 114.02476562 -70.92726563 115.18234375 -71.25 116.375 C-71.48847656 117.3753125 -71.72695312 118.375625 -71.97265625 119.40625 C-73.67359339 122.8628168 -75.6309954 123.58822446 -79.1875 124.875 C-83.2448407 124.32485211 -85.39064169 123.91002046 -87.92578125 120.6171875 C-91.36809024 113.13576053 -86.42417479 102.4121646 -83.80078125 95.078125 C-77.53000273 78.35067208 -69.70687113 63.58640681 -58.1875 49.875 C-57.59582031 49.13636719 -57.00414063 48.39773437 -56.39453125 47.63671875 C-44.30897717 33.1289001 -27.29870011 23.2683827 -10.1875 15.875 C-23.79013813 8.10645046 -36.91342473 6.10749605 -52 9.9140625 C-75.93156024 17.12872404 -94.83281925 38.63291657 -106.3984375 59.8828125 C-119.37615185 84.51198644 -126.71394809 115.25348417 -119.28125 142.81640625 C-113.65586722 158.54738739 -105.47229005 168.37492762 -90.36938477 175.54052734 C-88.64847111 176.33269723 -86.91888024 177.10597503 -85.1875 177.875 C-85.45304687 177.13636719 -85.71859375 176.39773438 -85.9921875 175.63671875 C-89.37972716 165.9068147 -91.33051158 156.78839709 -91.625 146.5 C-91.65948242 145.82163086 -91.69396484 145.14326172 -91.72949219 144.44433594 C-91.76212542 140.57633772 -91.2827382 138.99472348 -88.84765625 135.93359375 C-86.1875 133.875 -86.1875 133.875 -83.1875 133.3125 C-79.52842496 133.99857657 -77.83582324 135.30234314 -75.1875 137.875 C-73.84486017 140.56027967 -73.84161884 143.19190043 -73.59277344 146.14648438 C-72.15899566 162.87603499 -67.89460587 179.03122192 -55.1875 190.875 C-47.06985584 197.36572591 -36.4920685 200.12926857 -26.1875 199.875 C-20.50277824 199.02534804 -14.86403969 197.9676256 -9.52734375 195.7890625 C-5.26110629 194.12245221 -1.00735556 194.08172963 3.25 195.9375 C5.60509706 198.85782035 5.74861417 201.16962195 5.8125 204.875 C3.8051328 209.3624591 1.70949793 210.80394525 -2.8125 212.5625 C-3.79476562 212.95824219 -4.77703125 213.35398437 -5.7890625 213.76171875 C-13.66468244 216.34166321 -21.0322664 217.26214723 -29.3125 217.3125 C-30.24320312 217.34537109 -31.17390625 217.37824219 -32.1328125 217.41210938 C-47.19863214 217.52469362 -60.87208382 209.95653702 -74.125 203.5625 C-75.6552352 202.83322062 -77.18583352 202.10470266 -78.71679688 201.37695312 C-86.18366215 197.81821269 -93.61976084 194.19608337 -101.03125 190.5234375 C-101.68645126 190.20110641 -102.34165253 189.87877533 -103.01670837 189.54667664 C-107.86395379 187.12852091 -112.14236026 184.47067977 -116.1875 180.875 C-117.05181641 180.14796875 -117.05181641 180.14796875 -117.93359375 179.40625 C-131.37998544 167.18770254 -138.4261592 147.45302123 -139.35595703 129.64941406 C-139.8249999 115.26412432 -140.0706872 100.82717026 -136.1875 86.875 C-135.94 85.98570801 -135.6925 85.09641602 -135.4375 84.18017578 C-124.70455196 46.95647347 -102.89831073 16.23645595 -68.8984375 -2.984375 C-45.84434209 -14.5400258 -22.35263428 -10.70197686 0 0 Z " fill="#000000" transform="translate(139.1875,183.125)"/>
<path d="M0 0 C12.20454196 10.86790954 19.03979838 25.46973155 20.36181641 41.74072266 C20.65249183 57.24341171 15.69638203 72.63566912 5.84619141 84.74072266 C-6.61521299 97.54121289 -21.18520855 103.28173335 -38.66943359 103.70166016 C-41.84130859 103.24072266 -41.84130859 103.24072266 -44.23193359 101.46728516 C-45.93067233 99.11708837 -46.38590206 98.09470445 -46.34130859 95.24072266 C-46.35162109 94.58072266 -46.36193359 93.92072266 -46.37255859 93.24072266 C-45.57131347 90.22427041 -44.32939561 89.11274979 -41.84130859 87.24072266 C-39.24054948 86.60057996 -36.8515732 86.14919916 -34.21630859 85.80322266 C-22.10213805 83.83953816 -12.68353391 78.80500129 -5.05224609 68.92431641 C0.92085463 59.75869632 3.49180146 49.21716449 1.68994141 38.43603516 C-0.51419074 28.12384545 -5.29081447 18.70495943 -13.84130859 12.24072266 C-24.35957263 5.95878013 -34.80730145 2.30643402 -47.05224609 4.92822266 C-59.36399421 8.37206828 -68.679567 14.71205824 -75.38037109 25.78369141 C-76.22552815 27.33808845 -77.04664382 28.90601319 -77.83349609 30.49072266 C-78.84130859 32.24072266 -78.84130859 32.24072266 -80.84130859 33.24072266 C-87.8934413 33.80944304 -87.8934413 33.80944304 -91.34130859 31.74072266 C-93.50639948 28.13223784 -93.70897882 25.25621974 -92.84130859 21.24072266 C-87.40552206 7.51792572 -76.72344787 -2.14373981 -63.84130859 -8.75927734 C-42.5842014 -17.81230417 -17.91735106 -14.94130515 0 0 Z " fill="#000000" transform="translate(413.84130859375,238.75927734375)"/>
</svg>
