<?xml version="1.0" encoding="UTF-8"?>
<svg version="1.1" xmlns="http://www.w3.org/2000/svg" width="512" height="512">
<path d="M0 0 C1.24394531 0.25652344 2.48789062 0.51304688 3.76953125 0.77734375 C4.96707031 1.03386719 6.16460937 1.29039063 7.3984375 1.5546875 C8.47528809 1.78397949 9.55213867 2.01327148 10.66162109 2.24951172 C13.7290411 3.15573747 16.01307372 4.29002056 18.625 6.125 C22.03517944 12.94535887 18.53441043 22.15998884 16.75634766 29.10644531 C16.4198159 30.44802898 16.10000238 31.79392143 15.79736328 33.14355469 C13.86997839 41.73621739 11.60706173 47.34109261 4.19677734 52.53857422 C2.62293436 53.50941452 1.03010571 54.45121544 -0.59130859 55.34033203 C-8.40033584 60.06324671 -9.8950854 68.77099315 -12.375 77 C-12.88854362 78.62640528 -13.40500592 80.25189173 -13.92431641 81.87646484 C-15.2007463 85.88478158 -16.45019273 89.90086448 -17.69152832 93.92016602 C-19.33183203 99.21167621 -21.03482472 104.4823277 -22.75 109.75 C-23.03488281 110.67022949 -23.31976563 111.59045898 -23.61328125 112.53857422 C-26.34467343 120.99865241 -30.67146594 128.33261777 -36.25 135.25 C-36.84554687 135.99507812 -37.44109375 136.74015625 -38.0546875 137.5078125 C-38.49039063 138.04148438 -38.92609375 138.57515625 -39.375 139.125 C-34.47347853 147.35955608 -27.84081258 151.64942979 -19.4375 155.9375 C-8.25882609 161.9182376 -1.65006634 168.75757145 2.21484375 180.9921875 C2.76099715 183.83218518 2.75679399 186.5466589 2.75 189.4375 C2.74613281 191.17193359 2.74613281 191.17193359 2.7421875 192.94140625 C2.625 196.125 2.625 196.125 1.875 199.875 C1.55841027 203.99066647 2.7767123 206.38868541 4.6171875 210.01171875 C8.13986261 217.39841346 7.21269377 225.78889554 4.75390625 233.3671875 C3.64472483 236.07681407 2.34298147 238.62499934 0.95825195 241.20288086 C-4.87218042 252.13735544 -5.2387152 260.00527574 -1.9375 271.8125 C-1.69612305 272.5964917 -1.45474609 273.3804834 -1.20605469 274.18823242 C0.6108485 280.20056469 2.10726448 286.63731888 -0.4375 292.625 C-3.39524954 294.91487061 -5.73157144 295.47557045 -9.375 295.125 C-23.92682747 291.28546769 -36.17880321 282.00908635 -44.16015625 269.27734375 C-51.82366398 254.98593744 -53.33138867 239.7739302 -49.375 224.125 C-51.355 224.125 -53.335 224.125 -55.375 224.125 C-55.43816406 224.68445313 -55.50132812 225.24390625 -55.56640625 225.8203125 C-57.41806932 237.9438328 -63.30012996 247.32472501 -71.24462891 256.30664062 C-85.23356025 272.22524568 -91.44257831 291.01444707 -91.625 311.9375 C-91.63450684 312.84588623 -91.64401367 313.75427246 -91.65380859 314.69018555 C-91.62380118 320.70333815 -91.5340591 325.74146406 -87.30859375 330.40625 C-86.48488281 331.1384375 -85.66117188 331.870625 -84.8125 332.625 C-74.07101983 342.99394328 -67.28711599 355.7886249 -64.5 370.5 C-62.92220291 375.58401286 -60.08729894 378.39985573 -56.375 382.125 C-55.91706055 382.58455078 -55.45912109 383.04410156 -54.98730469 383.51757812 C-52.92319695 385.58573049 -50.85543893 387.64999474 -48.77758789 389.7043457 C-46.05143267 392.40750258 -43.42212507 395.13175771 -40.9375 398.0625 C-37.2120913 402.45184293 -33.10505642 406.44787007 -28.99243164 410.47045898 C-26.51293485 412.91131234 -24.30561913 415.21843122 -22.22265625 418.0234375 C-21.61292969 418.71695312 -21.00320313 419.41046875 -20.375 420.125 C-17.14080277 420.07283553 -14.51981627 419.73599288 -11.375 419.125 C9.75268158 415.58637353 28.43439391 417.49424672 48.85546875 423.55078125 C50.43919533 424.01970039 50.43919533 424.01970039 52.05491638 424.49809265 C56.40956873 425.7979407 60.75966558 427.11022435 65.09936523 428.45922852 C83.66551279 434.56506068 83.66551279 434.56506068 102.625 432.125 C104.00991903 430.20591094 104.00991903 430.20591094 104.625 428.125 C109.59231526 422.63410286 115.16006481 419.55883986 122.51953125 418.84375 C131.87415565 418.56134624 137.48951026 420.0380189 144.5625 426.1875 C149.55337839 430.90280841 154.13080175 435.93938663 158.625 441.125 C159.79148752 442.45849007 160.95814344 443.79183285 162.125 445.125 C162.67800781 445.76179688 163.23101562 446.39859375 163.80078125 447.0546875 C165.93995816 449.48244716 168.1282994 451.86270081 170.3125 454.25 C179.38702695 464.40851482 179.38702695 464.40851482 179.01171875 471.1640625 C178.34953755 474.5217894 176.85814182 476.59008226 174.625 479.125 C170.98049977 480.95489473 168.05590158 481.36565364 164.0050354 481.32676697 C162.89141821 481.32128877 161.77780102 481.31581057 160.63043785 481.31016636 C158.81717727 481.28606394 158.81717727 481.28606394 156.96728516 481.26147461 C155.00605199 481.24808988 153.04481874 481.2347138 151.083583 481.22171229 C149.00471297 481.20625847 146.92593264 481.18608178 144.84711456 481.16480637 C140.71603842 481.12366181 136.58503583 481.10178113 132.45379639 481.0852356 C123.68526566 481.04878375 114.91687088 480.99615129 106.1484375 480.94140625 C104.54888539 480.93151604 102.94933323 480.92163289 101.34978104 480.91175652 C94.68670098 480.87048922 88.02362412 480.82876118 81.36055565 480.78566074 C71.96422993 480.72488274 62.56789674 480.66694456 53.17152917 480.61300808 C46.47161966 480.57431826 39.77173504 480.53236876 33.07185996 480.48812145 C29.11041898 480.46203603 25.14898138 480.43720858 21.18751144 480.41592598 C6.27759821 480.33470648 -8.62570159 480.20149071 -23.52880859 479.70288086 C-25.16620467 479.65290246 -25.16620467 479.65290246 -26.83667946 479.60191441 C-49.25079168 478.75208909 -66.78152668 465.76298295 -85.33203125 454.41796875 C-91.2328133 450.81002192 -97.16393431 447.25740902 -103.125 443.75 C-103.97787598 443.24799072 -104.83075195 442.74598145 -105.70947266 442.22875977 C-107.54537641 441.1482174 -109.38131555 440.06773516 -111.21728516 438.98730469 C-117.05491204 435.54448593 -122.8819868 432.08387161 -128.70935059 428.62371826 C-130.73863082 427.41885888 -132.76822915 426.21453677 -134.79785156 425.01025391 C-135.44192963 424.62783539 -136.08600769 424.24541687 -136.74960327 423.85140991 C-138.03535592 423.08800886 -139.32134512 422.32500606 -140.60757446 421.56240845 C-143.87203521 419.62416246 -147.12668897 417.67161573 -150.36767578 415.69433594 C-156.89111356 411.72166723 -163.37082178 407.94954648 -170.375 404.875 C-182.76221941 399.22612633 -195.0392724 392.68215174 -206.375 385.125 C-205.47183841 396.30182737 -204.48278901 407.45469702 -203.15966797 418.59057617 C-199.07105244 453.24147099 -199.07105244 453.24147099 -206.98828125 464.3984375 C-208.69274927 466.43170533 -210.46239631 468.28772863 -212.375 470.125 C-212.87128906 470.61871094 -213.36757812 471.11242187 -213.87890625 471.62109375 C-222.01926158 479.09602494 -231.96781393 478.86677207 -242.375 479.125 C-243.3429248 479.15223145 -244.31084961 479.17946289 -245.30810547 479.20751953 C-248.47627469 479.28621644 -251.64361435 479.33541322 -254.8125 479.375 C-255.81861328 479.39651123 -256.82472656 479.41802246 -257.86132812 479.44018555 C-265.4356324 479.4734392 -271.78007624 478.39136498 -278.25 474.3125 C-282.17529894 470.27175109 -283.93466546 465.8977166 -284.4296875 460.26953125 C-284.30933116 455.54984347 -283.03943098 451.3261693 -280.17578125 447.5390625 C-275.2152896 442.82594444 -263.26849204 434.125 -256.375 434.125 C-256.55973877 433.30153076 -256.74447754 432.47806152 -256.93481445 431.62963867 C-258.78906698 423.35226891 -260.62732682 415.07149464 -262.45462036 406.78813171 C-263.8166884 400.62268781 -265.19968827 394.46220476 -266.59086609 388.30326843 C-267.61230391 383.76516871 -268.61981732 379.22403999 -269.62484741 374.68228149 C-270.12071809 372.45476688 -270.62210995 370.22847341 -271.12930298 368.00350952 C-278.92683854 333.74863542 -278.92683854 333.74863542 -270.0546875 318.91796875 C-263.79529352 309.97353419 -255.93867499 304.02336005 -245.375 301.125 C-229.17487419 298.66469004 -214.30467524 304.69874911 -199.25244141 309.93267822 C-195.87948294 311.09884099 -192.49594312 312.23345489 -189.11328125 313.37109375 C-182.52342301 315.59235034 -175.94555094 317.84728353 -169.375 320.125 C-169.43394943 319.45033691 -169.49289886 318.77567383 -169.55363464 318.08056641 C-169.8237434 314.97061614 -170.08962863 311.86031795 -170.35546875 308.75 C-170.44824097 307.68910156 -170.54101318 306.62820313 -170.63659668 305.53515625 C-172.21993777 286.89247648 -171.94224364 268.02552915 -167.82519531 249.67431641 C-167.31952031 246.81083574 -167.32872754 244.20639059 -167.41796875 241.30078125 C-167.44987305 239.63305664 -167.44987305 239.63305664 -167.48242188 237.93164062 C-167.5353668 235.62143411 -167.60026914 233.31146746 -167.67773438 231.00195312 C-167.85158925 219.83016763 -164.844421 211.47207797 -157.375 203.125 C-150.99471012 197.02211403 -143.63376644 193.93998359 -135.26171875 191.546875 C-134.15737236 191.22242401 -134.15737236 191.22242401 -133.03071594 190.89141846 C-131.49150297 190.44091909 -129.95121705 189.99407047 -128.40991211 189.55078125 C-126.04854798 188.87098344 -123.69114507 188.17859219 -121.33398438 187.484375 C-119.83094414 187.04613703 -118.32769606 186.60861114 -116.82421875 186.171875 C-116.12109055 185.96568542 -115.41796234 185.75949585 -114.69352722 185.54705811 C-111.81584228 184.7237557 -109.38539901 184.125 -106.375 184.125 C-106.27558105 183.35945801 -106.17616211 182.59391602 -106.07373047 181.80517578 C-104.70549264 171.73582341 -102.91943156 161.76579644 -101.02587891 151.78369141 C-100.49984918 148.99920166 -99.98616012 146.21260445 -99.47265625 143.42578125 C-96.6533781 128.34886696 -92.62350564 115.79566566 -85 102.375 C-84.28536717 101.09909721 -83.57143047 99.82280429 -82.8581543 98.54614258 C-77.8413976 89.59541127 -72.67236719 80.73479418 -67.46875 71.89160156 C-57.03840997 54.10393359 -47.26619839 35.90045934 -38.62109375 17.17578125 C-37.8933374 15.61452515 -37.8933374 15.61452515 -37.15087891 14.02172852 C-36.19502366 11.96633675 -35.25017106 9.9057824 -34.31787109 7.83959961 C-26.68775274 -8.54568026 -15.45360518 -3.3452894 0 0 Z M-17.375 14.125 C-19.1075 17.59 -19.1075 17.59 -20.875 21.125 C-21.27203125 21.91688721 -21.6690625 22.70877441 -22.078125 23.5246582 C-23.77890586 26.91789054 -25.47244082 30.31345837 -27.125 33.73046875 C-36.0616708 52.02271679 -46.16722188 69.77804416 -56.5 87.3125 C-61.5035193 95.8164001 -66.35069712 104.39437577 -71.0625 113.0625 C-71.65111816 114.13459717 -72.23973633 115.20669434 -72.84619141 116.3112793 C-73.39581543 117.33133057 -73.94543945 118.35138184 -74.51171875 119.40234375 C-75.23427856 120.73640259 -75.23427856 120.73640259 -75.97143555 122.09741211 C-79.82149456 130.40226196 -81.38844384 138.90931425 -82.94140625 147.890625 C-83.42780097 150.58297335 -83.92261976 153.2737707 -84.41601562 155.96484375 C-85.18339492 160.16551589 -85.93988367 164.36733543 -86.65844727 168.57666016 C-91.65616876 197.72011398 -91.65616876 197.72011398 -102.375 208.125 C-108.51736827 215.81250966 -112.87696851 221.5829431 -112.25 231.75 C-111.42974587 237.29148433 -108.94313048 240.70985786 -104.8125 244.4375 C-100.24203107 247.6016708 -95.75687552 247.74598564 -90.375 247.125 C-83.5972397 244.32040953 -78.43322498 239.3945196 -75.22622681 232.74201965 C-72.5239247 225.54632507 -71.5121882 218.7779746 -70.9609375 211.13671875 C-70.86036041 209.91708939 -70.75978333 208.69746002 -70.65615845 207.44087219 C-70.33970865 203.56574554 -70.04429233 199.68936587 -69.75 195.8125 C-69.5457056 193.2544423 -69.33998742 190.69649789 -69.1328125 188.13867188 C-69.03183762 186.88490753 -68.93086273 185.63114319 -68.826828 184.33938599 C-68.6254376 181.84007057 -68.42370919 179.34078236 -68.22163391 176.84152222 C-67.76046554 171.09995335 -67.3190306 165.35930826 -66.93823242 159.61181641 C-66.79372083 157.6435353 -66.64896135 155.67527237 -66.50390625 153.70703125 C-66.45483124 152.83068527 -66.40575623 151.95433929 -66.35519409 151.05143738 C-65.73514027 143.09646768 -62.2929796 138.33908316 -56.82763672 132.67431641 C-54.19999561 129.87179363 -51.87111712 126.83167681 -49.5 123.8125 C-49.04826416 123.26142578 -48.59652832 122.71035156 -48.13110352 122.14257812 C-41.74155109 114.19282767 -38.99615206 105.28728706 -36.07421875 95.6484375 C-35.67198296 94.35105849 -35.26846047 93.05407779 -34.86372375 91.75747681 C-33.15839932 86.29227041 -31.46212648 80.82453278 -29.80102539 75.34570312 C-28.77902864 71.97783979 -27.73427856 68.61775853 -26.67484474 65.26149368 C-26.08728233 63.37781823 -25.52450488 61.48646855 -24.96232605 59.59506226 C-21.75010458 49.48495057 -17.5471288 45.95777847 -8.6875 40.6875 C-2.40613442 36.25257979 -1.38498087 31.60817974 0.13671875 24.41796875 C0.69833812 21.18523657 0.69833812 21.18523657 0.625 18.125 C-5.315 16.805 -11.255 15.485 -17.375 14.125 Z M-50.375 155.125 C-51.035 163.705 -51.695 172.285 -52.375 181.125 C-43.78375699 181.21127535 -43.78375699 181.21127535 -41.1484375 177.5078125 C-40.68695313 176.43273437 -40.22546875 175.35765625 -39.75 174.25 C-39.26273438 173.18007812 -38.77546875 172.11015625 -38.2734375 171.0078125 C-37.05903827 168.09925952 -37.05903827 168.09925952 -38.375 165.125 C-40.0977086 163.3408855 -40.0977086 163.3408855 -42.1875 161.625 C-42.87457031 161.0371875 -43.56164062 160.449375 -44.26953125 159.84375 C-46.26207187 158.21718623 -48.31728433 156.66828676 -50.375 155.125 Z M-22.375 175.125 C-22.60687012 175.62950684 -22.83874023 176.13401367 -23.07763672 176.65380859 C-24.13054355 178.93800077 -25.19018168 181.21900694 -26.25 183.5 C-26.61480469 184.2940625 -26.97960937 185.088125 -27.35546875 185.90625 C-27.70996094 186.66679687 -28.06445312 187.42734375 -28.4296875 188.2109375 C-28.75437012 188.9126709 -29.07905273 189.6144043 -29.41357422 190.33740234 C-30.375 192.125 -30.375 192.125 -32.375 194.125 C-34.31445312 194.70336914 -34.31445312 194.70336914 -36.65625 195.16015625 C-37.49800781 195.32966797 -38.33976562 195.49917969 -39.20703125 195.67382812 C-40.08746094 195.84333984 -40.96789062 196.01285156 -41.875 196.1875 C-43.61505589 196.53016108 -45.35466417 196.87510541 -47.09375 197.22265625 C-48.25293945 197.44707397 -48.25293945 197.44707397 -49.43554688 197.67602539 C-51.44131389 198.06066932 -51.44131389 198.06066932 -53.375 199.125 C-53.84023063 201.02033342 -53.84023063 201.02033342 -54 203.1875 C-54.12375 204.486875 -54.2475 205.78625 -54.375 207.125 C-38.74099312 210.58820992 -38.74099312 210.58820992 -23.97265625 206.53515625 C-19.46993545 202.56087212 -14.78995806 198.31448041 -14.171875 192.07421875 C-14.06632262 186.98131656 -14.43833015 183.47937254 -17.375 179.125 C-19.01768708 177.7622327 -20.68190511 176.42460966 -22.375 175.125 Z M-132.6875 208.3125 C-133.44740234 208.60447266 -134.20730469 208.89644531 -134.99023438 209.19726562 C-141.33978544 211.76246219 -145.54874359 215.38561538 -149.375 221.125 C-150.54935664 224.64806992 -150.63472118 227.8926128 -150.6875 231.5625 C-150.72488281 232.88121094 -150.76226562 234.19992188 -150.80078125 235.55859375 C-150.29510551 239.79420796 -149.51109197 240.40622681 -146.375 243.125 C-144.75006901 244.25667543 -143.0890781 245.33768749 -141.40234375 246.375 C-140.42869873 246.97820068 -139.45505371 247.58140137 -138.4519043 248.20288086 C-137.41590088 248.83718018 -136.37989746 249.47147949 -135.3125 250.125 C-133.15063318 251.45897364 -130.98918048 252.79361862 -128.828125 254.12890625 C-127.74724609 254.7955127 -126.66636719 255.46211914 -125.55273438 256.14892578 C-122.57564487 258.00022898 -119.61955772 259.87965599 -116.671875 261.77734375 C-115.80570557 262.33357422 -114.93953613 262.88980469 -114.04711914 263.46289062 C-112.42069149 264.50999232 -110.79734488 265.56189902 -109.17749023 266.61914062 C-108.45247314 267.08384766 -107.72745605 267.54855469 -106.98046875 268.02734375 C-106.35293701 268.43460693 -105.72540527 268.84187012 -105.07885742 269.26147461 C-103.24737134 270.35103189 -103.24737134 270.35103189 -100.375 270.125 C-99.715 268.145 -99.055 266.165 -98.375 264.125 C-98.98085937 263.97804688 -99.58671875 263.83109375 -100.2109375 263.6796875 C-110.66790011 260.88043905 -117.92709222 256.79686168 -124 247.6875 C-128.76022692 238.816168 -129.42227275 228.19693741 -127.12109375 218.484375 C-126.07257037 215.16862567 -124.70688585 212.05878129 -123.1796875 208.9375 C-122.23974236 207.15085838 -122.23974236 207.15085838 -122.375 205.125 C-126.01412929 205.125 -129.3486338 206.9652382 -132.6875 208.3125 Z M-15.8125 220.4375 C-19.25208747 222.71165948 -22.15125298 223.59879865 -26.1875 224.375 C-30.03780304 225.27767438 -30.03780304 225.27767438 -32.7421875 227.95703125 C-33.63210999 230.37677288 -34.07246829 232.56542248 -34.375 235.125 C-34.47296875 235.90230469 -34.5709375 236.67960937 -34.671875 237.48046875 C-35.38516839 249.62627009 -30.22142456 260.16535274 -22.375 269.125 C-22.045 269.125 -21.715 269.125 -21.375 269.125 C-21.42720703 267.72701172 -21.42720703 267.72701172 -21.48046875 266.30078125 C-21.7567755 253.28804894 -19.6682059 242.65236096 -13.375 231.125 C-11.1499856 226.7101493 -10.00729454 223.15030797 -10.375 218.125 C-12.93758112 218.125 -13.73044729 218.97010734 -15.8125 220.4375 Z M-152.375 260.125 C-155.18299021 281.5609967 -155.49646608 302.95627354 -150.375 324.125 C-149.35428466 325.36656415 -149.35428466 325.36656415 -147.20703125 325.2578125 C-139.7540191 325.23852916 -132.32088286 325.00523353 -124.875 324.6875 C-123.91956299 324.64834473 -122.96412598 324.60918945 -121.97973633 324.56884766 C-121.06861084 324.52679199 -120.15748535 324.48473633 -119.21875 324.44140625 C-118.40599609 324.40474854 -117.59324219 324.36809082 -116.75585938 324.33032227 C-114.23945718 324.11331096 -111.84083365 323.66392164 -109.375 323.125 C-109.35518066 322.46081055 -109.33536133 321.79662109 -109.31494141 321.11230469 C-108.57343593 297.49064393 -108.57343593 297.49064393 -106.375 287.125 C-106.88135986 286.82432617 -107.38771973 286.52365234 -107.90942383 286.21386719 C-119.18736925 279.50717125 -130.3650237 272.66812757 -141.43359375 265.62109375 C-146.5558465 261.81184585 -146.5558465 261.81184585 -152.375 260.125 Z M-255.1875 327.34375 C-259.39608085 333.65662128 -259.03230778 341.17153813 -257.69837952 348.38952637 C-257.3877754 349.87560093 -257.06736803 351.35965146 -256.73852539 352.84179688 C-256.56456741 353.66080475 -256.39060944 354.47981262 -256.21138 355.32363892 C-255.64072328 357.99901193 -255.05698043 360.67133184 -254.47265625 363.34375 C-254.07078909 365.21164189 -253.66963126 367.07968651 -253.26914978 368.94787598 C-252.43159026 372.84572956 -251.58796972 376.74220191 -250.73950195 380.63769531 C-249.64995723 385.64070469 -248.57191379 390.64610351 -247.49785709 395.65245819 C-246.67148204 399.50142417 -245.84104616 403.34950404 -245.00915337 407.19728088 C-244.61002763 409.04397534 -244.2117278 410.89084849 -243.81425667 412.73789978 C-243.2603169 415.30724231 -242.70138475 417.87544454 -242.14086914 420.44335938 C-241.97615112 421.21108673 -241.81143311 421.97881409 -241.64172363 422.76980591 C-241.11407958 426.23755982 -241.11407958 426.23755982 -239.375 429.125 C-236.38481839 429.25167764 -233.42805892 429.31020838 -230.4375 429.3125 C-229.60025391 429.32474609 -228.76300781 429.33699219 -227.90039062 429.34960938 C-227.09923828 429.35154297 -226.29808594 429.35347656 -225.47265625 429.35546875 C-224.36676147 429.36163208 -224.36676147 429.36163208 -223.23852539 429.36791992 C-221.12902694 429.28554222 -221.12902694 429.28554222 -219.375 427.125 C-219.31549726 424.74455796 -219.31549726 424.74455796 -219.69873047 421.97607422 C-219.87914383 420.36332108 -219.87914383 420.36332108 -220.0632019 418.71798706 C-220.20476715 417.55034821 -220.3463324 416.38270935 -220.4921875 415.1796875 C-220.62819366 413.98070831 -220.76419983 412.78172913 -220.90432739 411.54641724 C-221.3425852 407.69634661 -221.79549391 403.84818357 -222.25 400 C-222.69516399 396.17303347 -223.13716632 392.34575079 -223.57424927 388.51785278 C-223.84725133 386.13319625 -224.12525193 383.7491052 -224.40890503 381.36569214 C-226.1610548 366.22114613 -226.1610548 366.22114613 -224.4375 361.625 C-221.05175773 359.16264199 -217.42026106 359.55860566 -213.375 360.125 C-210.59136588 361.29817102 -208.30043876 362.96476461 -205.875 364.75 C-198.91782477 369.53605811 -191.80991483 373.88091317 -184.4375 378 C-183.37700439 378.59272705 -182.31650879 379.1854541 -181.22387695 379.79614258 C-173.77633471 383.9080329 -166.20846457 387.71115881 -158.5625 391.4375 C-146.23074259 397.47535619 -134.60251893 404.46630916 -122.95094299 411.69302368 C-115.65303423 416.20961363 -108.26216986 420.56907537 -100.875 424.9375 C-98.1689509 426.53982475 -95.46334773 428.14290152 -92.7578125 429.74609375 C-92.11426819 430.12730377 -91.47072388 430.50851379 -90.80767822 430.90127563 C-85.44295137 434.0806838 -80.09385207 437.28563653 -74.75 440.5 C-73.20836577 441.42323126 -71.66669942 442.34640887 -70.125 443.26953125 C-66.61386849 445.37397851 -63.11821705 447.5026828 -59.625 449.63671875 C-57.66685805 450.8206291 -55.70852849 452.00422922 -53.75 453.1875 C-52.41654541 454.01096924 -52.41654541 454.01096924 -51.05615234 454.85107422 C-34.34108463 464.89269439 -15.64379987 463.27111056 3.2109375 463.22265625 C5.3656918 463.22078731 7.52044653 463.21936566 9.67520142 463.21836853 C15.30075284 463.2145808 20.92627777 463.20478321 26.55181885 463.19366455 C32.31058392 463.18336921 38.06935334 463.17885363 43.828125 463.17382812 C55.09376154 463.16315698 66.35937855 463.14612645 77.625 463.125 C77.955 458.835 78.285 454.545 78.625 450.125 C70.6299804 447.77436421 62.62952061 445.44307151 54.625 443.125 C53.50399902 442.79951172 52.38299805 442.47402344 51.22802734 442.13867188 C47.94582248 441.18897647 44.66088897 440.24935985 41.375 439.3125 C40.37799072 439.0230249 39.38098145 438.7335498 38.35375977 438.43530273 C20.12773797 433.27665105 2.99977798 432.89512004 -15.34179688 437.63305664 C-19.20314121 438.56732763 -22.45763999 439.06826926 -26.375 438.125 C-30.06491566 435.57379863 -32.97442391 432.41897397 -36 429.125 C-37.21042969 427.86623047 -37.21042969 427.86623047 -38.4453125 426.58203125 C-42.67548503 422.15271099 -46.73049795 417.58940595 -50.73974609 412.9609375 C-53.32771913 410.05536013 -56.09301112 407.34317024 -58.875 404.625 C-63.04448686 400.50773558 -67.08459327 396.36675702 -70.82421875 391.84765625 C-72.33133414 390.07512191 -72.33133414 390.07512191 -74.20703125 388.68359375 C-79.61176765 384.32566946 -80.51569545 379.34227398 -81.82592773 372.81665039 C-84.45519453 360.21007258 -90.74111959 350.02365012 -100.28125 341.40234375 C-102.95811068 339.76925897 -104.55969893 339.79035044 -107.6875 339.875 C-108.83992187 339.90078125 -109.99234375 339.9265625 -111.1796875 339.953125 C-114.3105915 340.07289475 -117.44038967 340.21643543 -120.5703125 340.359375 C-121.51479248 340.40223633 -122.45927246 340.44509766 -123.43237305 340.48925781 C-125.26229876 340.57550336 -127.0919532 340.66789363 -128.92114258 340.76855469 C-130.86363413 340.86648668 -132.80764324 340.93609706 -134.75195312 340.98632812 C-137.46260904 341.0900783 -140.08586951 341.29217794 -142.77929688 341.56054688 C-160.898103 342.91635084 -176.84847245 336.42266814 -193.63549805 330.46307373 C-199.89078581 328.24595044 -206.16092067 326.07278636 -212.4403801 323.92518616 C-214.60236205 323.17758565 -216.75466576 322.40620107 -218.90713501 321.63171387 C-232.43758515 316.87731093 -245.51533977 314.93815319 -255.1875 327.34375 Z M117.625 439.125 C116.29938509 440.87093184 115.09071058 442.64210927 113.93359375 444.50390625 C110.33914679 448.9567286 104.60356178 448.83698176 99.3046875 449.5625 C96.48633709 449.89915622 96.48633709 449.89915622 94.625 452.125 C94.625 456.085 94.625 460.045 94.625 464.125 C114.425 464.125 134.225 464.125 154.625 464.125 C150.05935009 457.92690608 150.05935009 457.92690608 145.1171875 452.203125 C144.52292969 451.57019531 143.92867188 450.93726563 143.31640625 450.28515625 C142.71699219 449.65480469 142.11757813 449.02445312 141.5 448.375 C140.89285156 447.72917969 140.28570312 447.08335937 139.66015625 446.41796875 C133.81381336 439.26974939 133.81381336 439.26974939 125.8125 435.875 C122.06850586 436.1686466 120.55875812 436.79303842 117.625 439.125 Z M-223.4777832 445.02636719 C-240.6436613 444.29364595 -252.1162403 448.7685437 -266.375 458.125 C-266.045 459.445 -265.715 460.765 -265.375 462.125 C-261.12495329 462.19985856 -256.87526866 462.25393167 -252.62475586 462.28979492 C-251.18263045 462.30476508 -249.74054964 462.32514868 -248.29858398 462.35131836 C-235.07440178 462.7523738 -235.07440178 462.7523738 -223.21875 457.546875 C-219.87145656 453.38221921 -218.59419393 450.49525135 -218.375 445.125 C-220.07624545 445.125 -221.77840617 445.10607789 -223.4777832 445.02636719 Z " fill="#000000" transform="translate(317.375,16.875)"/>
</svg>
